<?xml version="1.0" encoding="UTF-8"?>
<svg width="25px" height="17px" viewBox="0 0 25 17" version="1.1" xmlns="http://www.w3.org/2000/svg" xmlns:xlink="http://www.w3.org/1999/xlink">
    <!-- Generator: sketchtool 57.1 (101010) - https://sketch.com -->
    <title>CC119F4F-707D-4492-8914-648197F6A046</title>
    <desc>Created with sketchtool.</desc>
    <g id="Muyesser-Web-v2" stroke="none" stroke-width="1" fill="none" fill-rule="evenodd">
        <g id="Current-Request-Pool" transform="translate(-245.000000, -976.000000)" fill="#638984" fill-rule="nonzero">
            <g id="Footer" transform="translate(0.000000, 944.000000)">
                <g id="Group-3" transform="translate(98.038067, 31.000000)">
                    <path d="M151.543287,1.26126568 C151.543287,1.26126568 154.273655,1 159.476574,1 C164.679493,1 167.415585,1.26160127 167.415585,1.26160127 C169.051642,1.37217104 170.625451,2.67774022 170.889411,4.18751352 C170.889411,4.18751352 171.36896,5.84895833 171.36896,9.3125 C171.36896,12.7760417 170.88796,14.4465522 170.88796,14.4465522 C170.606277,15.9469123 169.054944,17.2566477 167.412789,17.3587069 C167.412789,17.3587069 164.431735,17.625 159.476574,17.625 C154.521413,17.625 151.53459,17.3583722 151.53459,17.3583722 C149.900175,17.2505785 148.327697,15.9472598 148.063737,14.4374865 C148.063737,14.4374865 147.584187,12.7760417 147.584187,9.3125 C147.584187,5.84895833 148.065188,4.17844784 148.065188,4.17844784 C148.346871,2.67808774 149.903264,1.36499598 151.543287,1.26126568 Z M149.789769,5.68794662 C149.650792,6.67097173 149.566252,7.87770738 149.566252,9.3125 C149.566252,10.7473743 149.650532,11.9524389 149.789055,12.9326043 C149.867578,13.488222 150.020003,14.1404182 150.020003,14.1404182 C150.133717,14.7908284 150.941502,15.4674147 151.723576,15.5195659 C151.803518,15.5267022 153.16844,15.6185639 153.751027,15.6469904 C155.42495,15.7286671 157.344149,15.7777778 159.476574,15.7777778 C161.609016,15.7777778 163.527138,15.7287291 165.199257,15.6471567 C165.781195,15.6187676 167.143945,15.5270342 167.223676,15.5199119 C168.00627,15.4704973 168.810339,14.7951388 168.935556,14.1281788 C168.935556,14.1281788 169.084539,13.4947179 169.163379,12.9370534 C169.302355,11.9540283 169.386896,10.7472926 169.386896,9.3125 C169.386896,7.87762573 169.302616,6.67256111 169.164093,5.69239569 C169.08557,5.13677796 168.933145,4.4845818 168.933145,4.4845818 C168.819284,3.83332737 168.008637,3.15375433 167.272229,3.10398563 C167.143839,3.09253697 165.860189,3.00326851 165.293083,2.97547379 C163.659535,2.89541119 161.717899,2.84722222 159.476574,2.84722222 C157.235232,2.84722222 155.294663,2.89534907 153.662905,2.97530706 C153.096446,3.00306423 151.677494,3.10424854 151.677494,3.10424854 C150.952098,3.15012928 150.142747,3.83019387 150.017592,4.49682121 C150.017592,4.49682121 149.868609,5.13028213 149.789769,5.68794662 Z M157.006077,7.14986231 C157.00741,6.63734303 157.398533,6.42428314 157.872889,6.67045755 L162.088712,8.85832561 C162.566106,9.10607695 162.56201,9.51120975 162.086368,9.75966031 L157.859113,11.9677575 C157.380424,12.2177996 156.993453,12.0041637 156.994783,11.4925005 L157.006077,7.14986231 Z" id="Combined-Shape-4"></path>
                </g>
            </g>
        </g>
    </g>
</svg>