<?xml version="1.0" encoding="UTF-8"?>
<svg version="1.1" viewBox="0 0 21 19" xmlns="http://www.w3.org/2000/svg">
<title>B3590583-9D84-4954-A0B7-88ED823F36FE</title>
<desc>Created with sketchtool.</desc>
<g fill="none" fill-rule="evenodd">
<g transform="translate(-146 -975)" fill="#638984">
<g transform="translate(0 944)">
<g transform="translate(98.038 31)">
<path d="m65.522 17.1c0.55073 0 0.99655-0.423 0.99655-0.94533v-13.309c0-0.52243-0.44591-0.94533-0.99655-0.94533h-14.03c-0.55073 0-0.99655 0.423-0.99655 0.94533v13.309c0 0.52243 0.44591 0.94533 0.99655 0.94533h7.0152v-5.7h-1.002c-0.55309 0-1.0015-0.42533-1.0015-0.95 0-0.52467 0.44837-0.95 1.0015-0.95h1.002c0-1.802 0.21448-2.9377 1.1055-3.8837 0.88104-0.93541 1.9106-1.3413 2.9004-1.3413 0.55309 0 1.0015 0.42533 1.0015 0.95s-0.44837 0.95-1.0015 0.95c-0.43776 0-0.91952 0.18995-1.4068 0.70726-0.44346 0.47082-0.59616 1.2794-0.59616 2.6177h2.0029c0.55309 0 1.0015 0.42533 1.0015 0.95 0 0.52467-0.44837 0.95-1.0015 0.95h-2.0029v5.7h5.0122zm-17.03-0.94533v-13.309c0-1.5716 1.3425-2.8453 2.9995-2.8453h14.03c1.6567 0 2.9995 1.2735 2.9995 2.8453v13.309c0 1.5716-1.3425 2.8453-2.9995 2.8453h-14.03c-1.6567 0-2.9995-1.2735-2.9995-2.8453z"/>
</g>
</g>
</g>
</g>
</svg>
