<?xml version="1.0" encoding="UTF-8"?>
<svg version="1.1" viewBox="0 0 21 19" xmlns="http://www.w3.org/2000/svg">
<title>A7D96386-D0B2-4CAB-8CED-CAB38F33FEAF</title>
<desc>Created with sketchtool.</desc>
<g fill="none" fill-rule="evenodd">
<g transform="translate(-197 -975)" fill="#638984">
<g transform="translate(0 944)">
<g transform="translate(98.038 31)">
<path d="m104.09 0h10.024c2.7628 0 5.0026 2.1242 5.0026 4.7455v9.509c0 2.6209-2.2393 4.7455-5.0026 4.7455h-10.024c-2.7628 0-5.0026-2.1242-5.0026-4.7455v-9.509c0-2.6209 2.2393-4.7455 5.0026-4.7455zm-2.9996 14.255c0 1.5718 1.3428 2.8455 2.9996 2.8455h10.024c1.6569 0 2.9996-1.2738 2.9996-2.8455v-9.509c0-1.5718-1.3428-2.8455-2.9996-2.8455h-10.024c-1.6569 0-2.9996 1.2738-2.9996 2.8455v9.509zm3.0044-4.7545c0-2.6234 2.2419-4.75 5.0073-4.75 2.7655 0 5.0073 2.1266 5.0073 4.75 0 2.6234-2.2419 4.75-5.0073 4.75-2.7655 0-5.0073-2.1266-5.0073-4.75zm8.0117 0c0-1.574-1.3451-2.85-3.0044-2.85-1.6593 0-3.0044 1.276-3.0044 2.85 0 1.574 1.3451 2.85 3.0044 2.85 1.6593 0 3.0044-1.276 3.0044-2.85zm2.0029-3.8c-0.55309 0-1.0015-0.42533-1.0015-0.95s0.44837-0.95 1.0015-0.95 1.0015 0.42533 1.0015 0.95-0.44837 0.95-1.0015 0.95z"/>
</g>
</g>
</g>
</g>
</svg>
