<svg xmlns="http://www.w3.org/2000/svg" height="40.006" width="112" viewBox="0 0 632.08 223.77"><defs><style>.cls-1{fill:#fff;}.cls-2{fill:#00524d;}</style></defs><title>Asset 2</title><g id="Layer_2" data-name="Layer 2"><g id="Layer_1-2" data-name="Layer 1"><path class="cls-1" d="M418.76,215l-2,.43-8.32,8.3c26.55-5.61,64.84-9.16,107.37-9.16s80.82,3.55,107.37,9.16l8.92-8.92c-27.33-5.69-66-9-106.23-9-40.68,0-79.72,3.34-107.09,9.14"/><path class="cls-1" d="M416.74,215.46l.42-2C423,186,426.29,147,426.29,106.27,426.29,66,423,27.35,417.35,0l-8.92,8.92c5.61,26.57,9.14,64.86,9.14,107.43s-3.53,80.84-9.14,107.42Z"/><path class="cls-1" d="M555.2,144.21a255.62,255.62,0,0,0-23.43,18c3.88,3.57,7.82,7.43,11.74,11.61l.37-.37h.77l.16.53.58-.81a2.53,2.53,0,0,1,.79-2.78,2.28,2.28,0,1,1,3,3.39,2.54,2.54,0,0,1-2.3.63,2.1,2.1,0,0,0-.21,1.68c1,2.3,5.49,4.36,9,4.3,2.68,0,4.53-.88,7.29-3.59a3.83,3.83,0,0,1,5.86,0c4.32,6.27-4.51,12-10.78,12.08-7.65.17-14.57-4.55-16.35-6.67-.65-.74-1.12-1.06-1.71-.76-.33.15-.53.68-.63,1.19a2.64,2.64,0,0,1-.92,2.26,2.29,2.29,0,1,1-3-3.41,2.8,2.8,0,0,1,1.91-.69l.25-.06-.26-.16v-.78l.87-.86c-1.59-1.57-6.14-6-12.39-11.59-6.26,5.59-10.81,10-12.41,11.59l.88.86v.78l-.22.16.2.06a2.78,2.78,0,0,1,1.92.69,2.44,2.44,0,0,1,.43,3.41,2.41,2.41,0,0,1-3.41,0,2.6,2.6,0,0,1-.94-2.26,1.61,1.61,0,0,0-.63-1.19c-.59-.3-1.06,0-1.71.76-1.76,2.12-8.7,6.84-16.31,6.67-6.29-.12-15.17-5.81-10.8-12.08a3.84,3.84,0,0,1,5.88,0c2.73,2.71,4.59,3.57,7.31,3.59,3.49.06,7.94-2,9-4.3a2,2,0,0,0-.23-1.68,2.55,2.55,0,0,1-2.3-.63,2.28,2.28,0,1,1,3-3.39,2.46,2.46,0,0,1,.75,2.78l.59.81.17-.53h.79l.37.37c3.9-4.18,7.84-8,11.72-11.61a255.62,255.62,0,0,0-23.43-18c-26-17.27-45.6-15.62-45.6-15.62,14.72-5.49,33.21-.14,41.62,4.62a216.48,216.48,0,0,1,33.34,23.71,215.55,215.55,0,0,1,33.33-23.71c8.41-4.76,26.9-10.11,41.6-4.62,0,0-19.58-1.65-45.58,15.62m-71-82.54c.45-1.81,2.88-3.24,2.9-3.26l.24-.15V58C487.2,54.39,490,54,490.1,54l.43-.06,0-.47a1.54,1.54,0,0,1,.3-1.31c.53-.65,1.7-1,3.33-1a11.83,11.83,0,0,1,2,.17l.65.1-.18-.7a1.21,1.21,0,0,1,0-1,1.46,1.46,0,0,1,1.2-.38,15.58,15.58,0,0,1,4.8,1.22l.69.29-.08-.78a1.29,1.29,0,0,1,.2-1,2,2,0,0,1,1.56-.47,13.85,13.85,0,0,1,3.91.84l.19.08a5.31,5.31,0,0,0,2.83.69c.15.88.84,2.59,3.92,4.08l.13,0s1.63.38,3.59.91c1.16.35,2.45.76,3.59,1.21l.06,0-1.16.2a73.45,73.45,0,0,0-8.27,2.57,10.2,10.2,0,0,1-1.59.13c-3.23,0-3.86-1.57-3.9-1.57l-.16-.54-.45.31a6,6,0,0,1-3.37,1.33h-.1l-.45-.06-.45-.13a1.92,1.92,0,0,1-.79-.51l-.29-.34-.33.28a5.7,5.7,0,0,1-3.77,1.57,4.22,4.22,0,0,1-2-.47l-.25-.14-.22.21a17.7,17.7,0,0,1-5.59,3l-.13,0-.1.08c-.47.57-1.67.86-3.39.86a18.41,18.41,0,0,1-2-.13,2.27,2.27,0,0,1-.2-1.53m9.41-20.43c.81-1,2.63-1,3.16-1H497l.28,0,.12-.26a2.76,2.76,0,0,1,2.43-1.8,2.42,2.42,0,0,1,1.1.27l.41.18.19-.45a1.14,1.14,0,0,1,1.14-.81c1.53,0,3.65,1.93,3.71,2l.51.49.19-.73c.14-.67.41-.67.53-.67.94,0,2.83,2.14,3.79,3.49l.45.61.31-.72c.22-.57.51-.63.77-.63l.11,0a5.3,5.3,0,0,0,2.1,1.55c0,.76.28,2.27,2.51,3.45-.16.76-.16,2.35,1.67,4.68l.06.08a49.43,49.43,0,0,1,4.33,3.92l1,1.14.06.1,0,.08a23.5,23.5,0,0,0-2.32-1,54.7,54.7,0,0,0-6.35-1.79c-3.25-1.6-3.37-3.29-3.37-3.55v0l.1-.42v-.15l-.32,0-.23,0a6.89,6.89,0,0,1-1.49-.1l-.41-.1-1-.43-.4-.28a2.68,2.68,0,0,1-.64-1l-.08-.44-.39.06L507,47a4.19,4.19,0,0,1-3.7-2l-.16-.27-.29.06c-.47,0-1,.07-1.47.07a12.87,12.87,0,0,1-3.79-.53l-.1-.05-.13.05-.3,0c-1.17,0-3-1.37-3.86-2a1.56,1.56,0,0,1,.41-1.1m13.71-9.32a5.47,5.47,0,0,1,2.21.67l.24.14.25-.16a2.41,2.41,0,0,1,1.49-.63,2.24,2.24,0,0,1,1.61.81l.28.39.35-.33.63-.28c1.07,0,2.27,2.24,2.6,3.06l.3.67.45-.57.43-.32c.59,0,1.43,2.14,1.86,4.16l.14.77.55-.51.49-.26c.78,4.41,2.69,11.26,3.8,15l.16.55-.9-1-1.06-1a42.14,42.14,0,0,0-3.26-2.9c-2.11-2.67-1.39-4-1.39-4l.28-.43,0-.06-.1,0-.39-.18a5.77,5.77,0,0,1-1.61-1.1,2.27,2.27,0,0,1-.75-1.58v-.28l.08-.31,0-.14-.27-.1-.12,0a4.18,4.18,0,0,1-2.24-1.64,3.68,3.68,0,0,1-.62-1.59l0-.3-.26-.11a11.8,11.8,0,0,1-3.88-2.4l-.12-.09-.1,0c-.82-.14-1.9-1.92-2.47-3.12a1.29,1.29,0,0,1,1.3-.73m14.41,4.36h.33l-.06-.53c-.33-3.3-.11-6.06.57-6.85l.32-.17.31.1.53.29.1-.61a11.6,11.6,0,0,1,2-4.84,10.92,10.92,0,0,1,2,4.84l.13.61.49-.29.34-.1.33.17c.63.79.86,3.55.55,6.85l0,.53H530a9.09,9.09,0,0,1-.25,2.53l-.12.74-.25,1.22c-.67,3.13-1.79,7.47-3,11.84l-.08.29-.37,1.28-.06.17,0-.17-.36-1.28-.11-.29c-1.24-4.37-2.34-8.71-3-11.84l-.24-1.22-.12-.74a8.79,8.79,0,0,1-.23-2.53M531,39.79l.57.51.14-.77c.43-2,1.29-4.16,2-4.16l.31.32.47.57.26-.67c.33-.82,1.53-3.06,2.61-3.06l.64.28.34.33.29-.39a2.19,2.19,0,0,1,1.61-.81,2.56,2.56,0,0,1,1.53.63l.23.16.2-.14a5.3,5.3,0,0,1,2.23-.67,1.31,1.31,0,0,1,1.3.73c-.57,1.2-1.65,3-2.47,3.12l-.12,0-.1.09a11.58,11.58,0,0,1-3.86,2.4l-.29.11,0,.3a3.2,3.2,0,0,1-.63,1.59,4.16,4.16,0,0,1-2.2,1.64l-.13,0-.28.1,0,.14.06.31,0,.28a2.61,2.61,0,0,1-.75,1.58,6.52,6.52,0,0,1-1.64,1.1l-.36.18-.09,0v.06l.27.41s.69,1.35-1.39,4c-.28.21-1.77,1.43-3.3,2.9l-1,1-.9,1,.14-.55c1.14-3.78,3-10.63,3.82-15Zm19.22-1.61.19.45.4-.18a2.44,2.44,0,0,1,1.11-.27,2.71,2.71,0,0,1,2.4,1.8l.15.26.28,0h.21c.53,0,2.32.06,3.16,1a1.76,1.76,0,0,1,.41,1.1c-.8.68-2.7,2-3.88,2l-.28,0-.13-.05-.12.05a12.84,12.84,0,0,1-3.78.53c-.49,0-1-.05-1.46-.07l-.31-.06-.12.27a4.24,4.24,0,0,1-3.72,2l-.9-.06-.42-.06-.09.44a1.9,1.9,0,0,1-.59,1l-.41.28-1,.43-.38.1a8.41,8.41,0,0,1-1.51.1h-.25l-.27,0v.13l0,.42v0c0,.3-.13,2-3.35,3.55a56,56,0,0,0-6.33,1.79c-.86.31-1.65.64-2.37,1l.07-.08,0-.1,1-1.14a51.74,51.74,0,0,1,4.32-3.92l.06-.08c1.86-2.33,1.86-3.92,1.7-4.68,2.22-1.18,2.51-2.69,2.51-3.45a5.16,5.16,0,0,0,2.1-1.55l.12,0c.23,0,.53.06.76.63l.31.72.44-.61c.94-1.35,2.84-3.49,3.8-3.49.12,0,.37,0,.53.67l.18.73.54-.49c.61-.55,2.4-2,3.67-2a1.15,1.15,0,0,1,1.16.81m-3.22,32-.25-.47-.39.31a1.18,1.18,0,0,1-.69.18,2.87,2.87,0,0,1-2-1l-.39-.38a16.89,16.89,0,0,1-1.4-2l-.35-.6-.19.33-.16.24a1.59,1.59,0,0,1-1.41.62,6.81,6.81,0,0,1-3.73-1.6,84.31,84.31,0,0,0-7-6.91c-.45-.39-.88-.72-1.27-1L527,57.3l.1,0,.65.09a53.92,53.92,0,0,1,9.92,2.83l.08,0a11,11,0,0,0,1.76.13c2.73,0,3.94-1,4.41-1.68a6.59,6.59,0,0,0,3.57,1.23l.16,0-.12.67-.21.63H548c1.26,0,4.71.33,5.49,1.72a1.62,1.62,0,0,1-.08,1.53l-.25.53.55.16s3.39,1,4.41,3.14a2.6,2.6,0,0,1,.14,2.15l-.08.36.27.21c.12.06,2.63,1.86,1.65,6l0,.2.12.21s3.06,4.57,1.37,6.83c-1.31-.47-4.06-1.77-4.68-3.43l0-.1-.1-.08a24.79,24.79,0,0,1-4.34-6.12l-.15-.31-.32,0-.27,0c-.8,0-2.92-.38-4.65-4m-35.11,57.39h12l-2.55-11,2-1.94-2.53-10,2-1-2.63-10.9L522.53,91l-2.1-9.31,2.38-1.3-1.49-8.27,2-1.3-.3-8.92v0a10.56,10.56,0,0,1,2.83-4.45,10.35,10.35,0,0,1,2.86,4.49l-.31,8.92,2,1.3-1.49,8.27,2.39,1.3L529.18,91l2.37,1.73L529,103.61l2,1-2.54,10,2,1.94-2.24,11h11.71s1.53.66,1,1.84-6.63,7.28-7.14,7-.51-2.63-.82-3.06-2.83,2.47-4,3.12a15.12,15.12,0,0,0-3.06-2.57C524,135,522,136.39,522,136.39c-1.17-.65-3-3.37-3.19-3.06s-.36,2.77-.83,3-6.66-5.82-7.15-7,1-1.82,1-1.82M491.65,76.94c-1-4.14,1.53-5.94,1.65-6l.27-.21-.09-.36a2.81,2.81,0,0,1,.13-2.15c1-2.1,4.45-3.16,4.45-3.16l.49-.14-.23-.53a1.61,1.61,0,0,1-.06-1.53c.8-1.39,4.2-1.72,5.49-1.72h.61l-.2-.63-.12-.67.26,0a6.59,6.59,0,0,0,3.47-1.23c.47.63,1.63,1.68,4.41,1.68a11.15,11.15,0,0,0,1.76-.13l.08,0c.08,0,6.08-2.36,9.92-2.83l.69-.09.08,0-.82.56-1.26,1a79.28,79.28,0,0,0-7,6.91,6.89,6.89,0,0,1-3.74,1.6,1.56,1.56,0,0,1-1.38-.59l-.17-.29-.22-.35-.35.64a12.45,12.45,0,0,1-1.43,2l-.36.38a2.9,2.9,0,0,1-1.94,1l-.7-.18-.43-.33-.22.49c-1.71,3.66-3.82,4-4.63,4l-.27,0-.32,0-.13.31A24.17,24.17,0,0,1,495,80.57l-.08.08,0,.1c-.59,1.66-3.37,3-4.65,3.43-1.69-2.26,1.35-6.79,1.37-6.83l.12-.21Zm13.63,8.16a3.12,3.12,0,0,1-.84-4l.27-.41-.39-.24-.57-1c-.08-1.39,1.69-3.39,2.39-4l.51-.49-.63-.31-.53-.57c-.05-.94,2.18-2.72,3.75-3.65l.65-.39-.61-.43-.2-.16a10.66,10.66,0,0,0,1.14-1.57,2.72,2.72,0,0,0,1.69.55,7.77,7.77,0,0,0,4.25-1.78l.08-.08a78.47,78.47,0,0,1,7.59-7.41,56.91,56.91,0,0,0-3.38,8c-2.15,3.55-3.8,3-3.8,3l-.49-.16-.08.57c-.45,3.82-2.31,3.94-2.39,3.94h-.43v.47c-.08,3.57-2.37,4.59-2.47,4.63l-.24.1,0,.33a16.76,16.76,0,0,1-1.27,5.59l0,.14v.13c.1,1.08-1.41,3.06-2.51,4.16l-.94-.65c-.86-1.29-.37-3.76-.35-3.78l.05-.3Zm42-4a3.07,3.07,0,0,1-.81,4l-.21.19.06.3c.13.7.33,2.72-.36,3.78L545,90c-1.08-1.1-2.59-3.08-2.49-4.16l0-.13-.08-.14A17.76,17.76,0,0,1,541.2,80l0-.31-.26-.12c-.09,0-2.37-1.06-2.47-4.63v-.47H538c-.08,0-1.94-.12-2.39-3.94l-.08-.55-.51.14s-1.61.55-3.78-3a56.11,56.11,0,0,0-3.39-8,72.08,72.08,0,0,1,7.58,7.41l.08.08a7.94,7.94,0,0,0,4.26,1.78,2.66,2.66,0,0,0,1.68-.55,18.1,18.1,0,0,0,1.14,1.57l-.2.16-.6.43.64.39c1.59.93,3.81,2.71,3.77,3.65l-.55.57-.61.31.53.49c.69.65,2.45,2.65,2.37,4l-.57,1-.37.24Zm14-27.57-.06.47.45.06c.12,0,2.88.35,2.76,3.94v.3l.26.15s2.45,1.45,2.86,3.26a2,2,0,0,1-.21,1.53,17.6,17.6,0,0,1-2,.13c-1.69,0-2.91-.29-3.38-.86l-.11-.08-.12,0a17.39,17.39,0,0,1-5.57-3l-.22-.21-.27.14a4.3,4.3,0,0,1-2,.47,5.8,5.8,0,0,1-3.78-1.57l-.32-.28-.29.36a1.87,1.87,0,0,1-.79.49l-.43.13-.45.06h-.1a5.86,5.86,0,0,1-3.35-1.33l-.45-.29-.22.52s-.68,1.57-3.86,1.57a10.2,10.2,0,0,1-1.59-.13,76.35,76.35,0,0,0-8.25-2.57l-1.2-.2.08,0c1.12-.45,2.43-.86,3.59-1.21,2-.53,3.63-.91,3.63-.91l.08,0c3.11-1.49,3.78-3.2,3.9-4.08a5.48,5.48,0,0,0,2.88-.69l.14-.08a14.18,14.18,0,0,1,3.94-.84,2,2,0,0,1,1.55.47,1.25,1.25,0,0,1,.21,1l-.06.78.67-.29a15.58,15.58,0,0,1,4.78-1.22c.63,0,1.06.14,1.22.38a1.31,1.31,0,0,1,0,1l-.18.7.69-.1a11.13,11.13,0,0,1,1.94-.17c1.63,0,2.82.35,3.33,1a1.65,1.65,0,0,1,.32,1.31M631.49.59c-27.43,5.59-65.76,8.77-105.66,8.77S447.65,6.18,420.2.59c5.59,27.47,8.79,65.8,8.79,105.68s-3.2,78.24-8.79,105.7c27.45-5.6,65.79-8.78,105.63-8.78s78.23,3.18,105.66,8.78c-5.57-27.41-8.77-65.76-8.77-105.7S625.92,28,631.49.59"/><path class="cls-2" d="M561.22,53.49l-.06.47.44.06c.13,0,2.9.35,2.78,3.94v.31l.25.14s2.46,1.45,2.87,3.26a2.15,2.15,0,0,1-.22,1.54,18.32,18.32,0,0,1-2,.12c-1.72,0-2.94-.29-3.41-.86l-.1-.1-.12,0a17.32,17.32,0,0,1-5.58-3l-.22-.19-.27.15a4.25,4.25,0,0,1-2,.47,5.74,5.74,0,0,1-3.77-1.58l-.31-.28-.3.35a2,2,0,0,1-.8.51l-.43.12-.45.06h-.1a5.88,5.88,0,0,1-3.35-1.33l-.45-.28-.2.51s-.69,1.57-3.88,1.57a11.49,11.49,0,0,1-1.59-.12,66.66,66.66,0,0,0-8.25-2.58l-1.2-.2.08,0c1.12-.45,2.43-.86,3.59-1.2,2-.53,3.64-.92,3.64-.92l.08,0c3.1-1.51,3.77-3.21,3.9-4.09a5.47,5.47,0,0,0,2.87-.69l.15-.08a14.2,14.2,0,0,1,3.94-.86,2.07,2.07,0,0,1,1.55.49,1.38,1.38,0,0,1,.22,1l-.08.78.67-.29a15.58,15.58,0,0,1,4.78-1.22,1.52,1.52,0,0,1,1.24.39,1.24,1.24,0,0,1,0,1l-.18.69.69-.1a11.43,11.43,0,0,1,1.94-.17c1.64,0,2.82.35,3.35,1a1.61,1.61,0,0,1,.31,1.31"/><path class="cls-2" d="M547.25,81.07a3.08,3.08,0,0,1-.84,4l-.2.19.06.3c.14.68.35,2.72-.37,3.76L545,90c-1.08-1.12-2.59-3.08-2.48-4.16l0-.15-.09-.12a17.5,17.5,0,0,1-1.2-5.61l0-.31-.27-.1c-.08,0-2.38-1.08-2.47-4.65v-.45l-.4,0c-.09,0-1.94-.12-2.39-3.94l-.08-.55-.51.16s-1.64.55-3.78-3a59.87,59.87,0,0,0-3.39-8,74.39,74.39,0,0,1,7.57,7.39l.09.08a8,8,0,0,0,4.24,1.78,2.66,2.66,0,0,0,1.7-.56,15.42,15.42,0,0,0,1.12,1.58l-.19.18-.59.43.61.39c1.6.94,3.82,2.71,3.78,3.65l-.53.57-.63.31.55.49c.67.65,2.45,2.63,2.37,4l-.6,1-.34.26Z"/><path class="cls-2" d="M505.28,85.11a3.06,3.06,0,0,1-.82-4l.25-.41-.37-.26-.59-1c-.08-1.41,1.69-3.39,2.38-4l.51-.49-.63-.31-.53-.57c0-.94,2.21-2.71,3.76-3.65l.65-.39-.61-.43-.19-.18a11.84,11.84,0,0,0,1.13-1.58,2.63,2.63,0,0,0,1.71.56,8,8,0,0,0,4.25-1.78l.06-.08a80.52,80.52,0,0,1,7.59-7.39,59.87,59.87,0,0,0-3.39,8c-2.14,3.55-3.79,3-3.79,3l-.49-.18-.09.57c-.45,3.82-2.3,3.94-2.38,3.94h-.43v.47c-.06,3.57-2.37,4.61-2.47,4.65l-.25.1,0,.31a16.64,16.64,0,0,1-1.26,5.61l0,.12v.15c.1,1.08-1.41,3-2.51,4.16l-.94-.67c-.86-1.27-.37-3.74-.35-3.76l0-.3Z"/><path class="cls-2" d="M491.64,76.94c-1-4.14,1.53-5.94,1.67-6l.27-.2-.1-.37a2.92,2.92,0,0,1,.12-2.14c1.06-2.1,4.47-3.17,4.47-3.17l.49-.14-.25-.53a1.67,1.67,0,0,1-.06-1.53c.8-1.41,4.23-1.71,5.49-1.71h.62l-.21-.66-.1-.67.26.06a6.57,6.57,0,0,0,3.45-1.22c.47.63,1.66,1.67,4.43,1.67a14,14,0,0,0,1.74-.12l.1,0a53.78,53.78,0,0,1,9.9-2.84l.69-.08.1,0-.81.55-1.29,1a73,73,0,0,0-7,6.94,7.08,7.08,0,0,1-3.73,1.57,1.59,1.59,0,0,1-1.41-.59l-.16-.27-.21-.36-.37.63a14.21,14.21,0,0,1-1.4,2l-.39.41a2.84,2.84,0,0,1-1.92,1l-.69-.17-.43-.34-.23.51c-1.73,3.65-3.83,4-4.65,4l-.27,0-.3,0-.12.28A25.89,25.89,0,0,1,495,80.58l-.08.08-.07.1c-.59,1.65-3.36,3-4.65,3.43-1.69-2.27,1.35-6.8,1.37-6.86l.14-.18Z"/><path class="cls-2" d="M511.87,127.55h12l-2.55-11,2-2-2.53-10,2-1-2.63-10.9L522.53,91l-2.1-9.3,2.38-1.31-1.49-8.26,2-1.31-.3-8.92v0a10.53,10.53,0,0,1,2.83-4.43,10.34,10.34,0,0,1,2.86,4.47l-.31,8.92,2,1.31-1.49,8.26,2.39,1.31L529.18,91l2.37,1.74L529,103.61l2,1-2.54,10,2,2-2.24,11h11.71s1.53.65,1,1.83-6.66,7.29-7.17,7-.51-2.63-.82-3.08c-.26-.28-2.83,2.47-4,3.12a15.49,15.49,0,0,0-3.06-2.57C524,135,522,136.38,522,136.38c-1.17-.65-3-3.36-3.19-3.06s-.36,2.78-.83,3-6.66-5.81-7.15-7,1-1.81,1-1.81"/><path class="cls-2" d="M547,70.16l-.25-.47-.41.31a1.11,1.11,0,0,1-.69.18,2.84,2.84,0,0,1-1.94-1l-.39-.39a14.21,14.21,0,0,1-1.4-2l-.35-.59-.21.33-.16.26a1.65,1.65,0,0,1-1.41.59,6.92,6.92,0,0,1-3.73-1.59,77.94,77.94,0,0,0-6.94-6.92c-.47-.39-.9-.71-1.29-1L527,57.3l.1,0,.67.08a56.49,56.49,0,0,1,9.92,2.84l.06,0a11.23,11.23,0,0,0,1.76.12c2.73,0,3.94-1,4.43-1.67a6.55,6.55,0,0,0,3.57,1.22l.16,0-.14.67-.19.64H548c1.24,0,4.69.32,5.47,1.71a1.51,1.51,0,0,1-.08,1.53l-.23.53.53.17s3.39,1,4.43,3.16a2.6,2.6,0,0,1,.14,2.12l-.1.37.27.2c.14.07,2.63,1.86,1.67,6l-.06.21.14.2s3.06,4.57,1.37,6.84c-1.31-.47-4.08-1.78-4.67-3.43l0-.1-.1-.08a23.91,23.91,0,0,1-4.34-6.13l-.17-.3-.3.06h-.27c-.82,0-2.92-.39-4.65-4"/><path class="cls-2" d="M550.21,38.18l.18.45.41-.2a2.57,2.57,0,0,1,1.1-.25A2.75,2.75,0,0,1,554.31,40l.12.28.31,0h.2c.51,0,2.33.07,3.14,1a1.68,1.68,0,0,1,.43,1.11c-.81.65-2.71,2-3.87,2l-.31,0-.1,0-.13,0a12.81,12.81,0,0,1-3.77.53c-.49,0-1,0-1.49-.08l-.29,0-.14.26a4.16,4.16,0,0,1-3.69,2l-.9-.08-.43,0-.08.45a1.84,1.84,0,0,1-.59,1l-.43.3-1,.43-.39.1a6.45,6.45,0,0,1-1.51.09h-.51v.1l0,.45v0c0,.28-.12,2-3.35,3.55a54.29,54.29,0,0,0-6.32,1.79c-.86.31-1.66.64-2.37,1l.06-.06,0-.1,1-1.14a52.84,52.84,0,0,1,4.33-3.92l.06-.08c1.86-2.35,1.86-3.94,1.69-4.68,2.23-1.2,2.51-2.69,2.51-3.47a5.09,5.09,0,0,0,2.11-1.53l.12,0c.22,0,.53.06.75.64l.31.71.43-.61c1-1.35,2.85-3.49,3.81-3.49.13,0,.37,0,.53.67l.19.72.53-.47c.61-.55,2.41-2,3.67-2a1.18,1.18,0,0,1,1.17.81"/><path class="cls-2" d="M531,39.79l.55.53.17-.8c.41-2,1.26-4.16,2-4.16l.28.32.47.57.29-.67c.32-.79,1.53-3.06,2.61-3.06l.61.29.37.32.27-.39a2.24,2.24,0,0,1,1.61-.81,2.56,2.56,0,0,1,1.55.63l.2.18.23-.14a4.89,4.89,0,0,1,2.2-.69,1.33,1.33,0,0,1,1.33.75c-.57,1.19-1.68,3-2.47,3.13l-.12,0-.11.08a11.81,11.81,0,0,1-3.87,2.43l-.27.08,0,.32a3.66,3.66,0,0,1-.63,1.6A4.41,4.41,0,0,1,536,42l-.14,0-.28.08.06.16.06.29,0,.29a2.49,2.49,0,0,1-.74,1.57,5.6,5.6,0,0,1-1.63,1.12l-.39.18-.08,0,0,.05.27.4s.69,1.35-1.39,4c-.29.23-1.78,1.45-3.31,2.9l-1,1-.92,1,.17-.53c1.12-3.79,3-10.65,3.81-15Z"/><path class="cls-2" d="M521.73,36.29h.33l-.06-.54c-.33-3.3-.11-6.06.57-6.85l.32-.19.31.13.53.28.1-.63a11.61,11.61,0,0,1,2-4.82,10.92,10.92,0,0,1,2,4.82l.13.63.49-.28.34-.13.33.19c.63.79.86,3.55.55,6.85l0,.54H530a9.13,9.13,0,0,1-.25,2.53l-.12.73-.25,1.23c-.67,3.12-1.79,7.44-3,11.83l-.08.29-.37,1.28-.06.17,0-.17-.36-1.28-.11-.29c-1.24-4.39-2.34-8.71-3-11.83l-.24-1.23-.12-.73a8.83,8.83,0,0,1-.23-2.53"/><path class="cls-2" d="M507.32,31.92a5.41,5.41,0,0,1,2.21.67l.24.14.23-.18a2.55,2.55,0,0,1,1.51-.61,2.24,2.24,0,0,1,1.61.81l.29.39.34-.32.64-.29c1.06,0,2.26,2.25,2.59,3.06l.3.68.43-.6.45-.3c.59,0,1.43,2.14,1.86,4.16l.14.78.55-.51.49-.27c.78,4.41,2.7,11.27,3.8,15l.16.57-.92-1-1-1c-1.51-1.47-3-2.69-3.26-2.9-2.1-2.67-1.39-4-1.39-4l.29-.42,0-.07-.13,0-.38-.18a6.1,6.1,0,0,1-1.62-1.1,2.29,2.29,0,0,1-.73-1.57v-.29l.08-.31,0-.14-.26-.1-.13,0a4.37,4.37,0,0,1-2.24-1.63,3.61,3.61,0,0,1-.61-1.6l0-.3-.25-.1a11.92,11.92,0,0,1-3.88-2.41l-.12-.08-.1,0c-.82-.15-1.9-1.92-2.47-3.13a1.29,1.29,0,0,1,1.3-.73"/><path class="cls-2" d="M493.61,41.24c.81-1,2.63-1,3.16-1h.2l.31,0,.1-.26a2.77,2.77,0,0,1,2.43-1.8,2.49,2.49,0,0,1,1.1.26l.43.19.16-.45a1.17,1.17,0,0,1,1.15-.82c1.53,0,3.65,1.94,3.71,2l.51.49.19-.73c.14-.68.4-.68.53-.68.93,0,2.83,2.15,3.79,3.49l.45.64.31-.74c.22-.57.53-.63.77-.63l.1,0a5.34,5.34,0,0,0,2.11,1.55c0,.76.28,2.27,2.51,3.45-.17.75-.17,2.35,1.67,4.69l.06.07a48.5,48.5,0,0,1,4.33,3.91l1,1.15,0,.1,0,.08a19.25,19.25,0,0,0-2.33-1,57.3,57.3,0,0,0-6.34-1.8c-3.25-1.59-3.37-3.28-3.37-3.55v0l.1-.43v-.14l-.32,0-.23,0a6.89,6.89,0,0,1-1.49-.1l-.41-.08-1-.45-.41-.29a2.24,2.24,0,0,1-.61-1l-.08-.45-.41.06L507,47a4.19,4.19,0,0,1-3.69-2l-.16-.27-.27.06c-.49,0-1,.08-1.49.08a12.47,12.47,0,0,1-3.79-.55l-.11,0-.12,0-.31,0c-1.16,0-3-1.36-3.85-2a1.58,1.58,0,0,1,.41-1.1"/><path class="cls-2" d="M484.2,61.67c.43-1.82,2.88-3.25,2.9-3.27l.25-.14V58c-.15-3.59,2.65-3.93,2.75-4l.43-.06,0-.47a1.58,1.58,0,0,1,.33-1.3c.51-.63,1.69-1,3.32-1a12.44,12.44,0,0,1,1.94.16l.67.12-.18-.71a1.23,1.23,0,0,1,0-1c.17-.27.59-.39,1.21-.39a15.86,15.86,0,0,1,4.79,1.21l.7.28-.09-.77a1.26,1.26,0,0,1,.19-1,2,2,0,0,1,1.57-.49,14.1,14.1,0,0,1,3.92.83l.18.08a5.14,5.14,0,0,0,2.84.7c.14.88.81,2.59,3.92,4.08l.12,0s1.63.39,3.59.92c1.16.35,2.45.75,3.59,1.2l.06,0-1.16.23a68.27,68.27,0,0,0-8.26,2.55,9.23,9.23,0,0,1-1.6.12c-3.22,0-3.87-1.55-3.89-1.57l-.17-.53-.45.33a6.09,6.09,0,0,1-3.36,1.3h-.11l-.45-.06-.44-.12a2,2,0,0,1-.8-.51l-.29-.35-.32.29a5.65,5.65,0,0,1-3.78,1.59,4.27,4.27,0,0,1-2-.49l-.24-.14-.23.2a17.37,17.37,0,0,1-5.57,3l-.12,0-.1.08c-.47.58-1.68.86-3.39.86a18.69,18.69,0,0,1-2-.12,2.22,2.22,0,0,1-.21-1.53"/><path class="cls-2" d="M555.21,144.21a254.26,254.26,0,0,0-23.43,18c3.88,3.57,7.82,7.43,11.71,11.61l.39-.37h.78l.16.54.57-.82a2.56,2.56,0,0,1,.78-2.78,2.29,2.29,0,1,1,3,3.39,2.56,2.56,0,0,1-2.31.63,2,2,0,0,0-.22,1.68c1.06,2.3,5.49,4.36,9,4.3,2.67,0,4.55-.89,7.28-3.59a3.85,3.85,0,0,1,5.88,0c4.33,6.27-4.53,12-10.77,12.08-7.66.15-14.58-4.55-16.35-6.67-.65-.75-1.12-1.06-1.74-.75-.3.14-.51.67-.63,1.18a2.61,2.61,0,0,1-.9,2.26,2.28,2.28,0,1,1-3-3.4,2.71,2.71,0,0,1,1.92-.7l.23-.06-.25-.16v-.78l.86-.85c-1.57-1.58-6.12-6-12.39-11.6-6.25,5.6-10.8,10-12.39,11.6l.88.85v.78l-.23.16.21.06a2.71,2.71,0,0,1,1.92.7,2.28,2.28,0,1,1-3,3.4,2.52,2.52,0,0,1-.92-2.26,1.68,1.68,0,0,0-.65-1.18c-.58-.31-1.07,0-1.7.75-1.77,2.12-8.69,6.82-16.33,6.67-6.28-.12-15.14-5.81-10.77-12.08a3.84,3.84,0,0,1,5.88,0c2.73,2.7,4.59,3.57,7.28,3.59,3.51.06,8-2,9-4.3a2,2,0,0,0-.2-1.68,2.57,2.57,0,0,1-2.31-.63,2.41,2.41,0,0,1-.39-3.39,2.39,2.39,0,0,1,3.39,0,2.49,2.49,0,0,1,.78,2.78l.59.82.14-.54h.8l.37.37c3.91-4.18,7.85-8,11.73-11.61a254.26,254.26,0,0,0-23.43-18c-26-17.29-45.59-15.61-45.59-15.61,14.71-5.49,33.2-.15,41.61,4.59a219,219,0,0,1,33.33,23.73,219.92,219.92,0,0,1,33.35-23.73c8.41-4.74,26.9-10.08,41.59-4.59,0,0-19.59-1.68-45.57,15.61"/><path class="cls-1" d="M17.58,94.47q-.16-3.33-6.95-7.49a75.73,75.73,0,0,0-4.89,6.61,4.86,4.86,0,0,0-.47,2c0,2.06,1.21,3.09,3.66,3.09A18.37,18.37,0,0,0,16,97.07a2.85,2.85,0,0,0,1.59-2.6M20.25,68.6l-3,5-7.07-4.26-2.13,4L.56,69l3.1-5.27,6.88,4.37,2.4-3.92Zm2.17,22c0,1.5-.85,4-2.53,7.57A18.26,18.26,0,0,1,16.33,102a16,16,0,0,1-8.1,3.23,10.24,10.24,0,0,1-5.36-.7A4.3,4.3,0,0,1,0,100.34Q0,96,6.89,87l5.87-7.67a23.62,23.62,0,0,0,3.66,3.23,43.2,43.2,0,0,1,3.65,2.83,6.9,6.9,0,0,1,2.35,5.27"/><path class="cls-1" d="M51.29,102q0,6.8-5.45,14.55-5,7.13-10.4,7.13c-1.8,0-4.83-.78-9.11-2.38-4.57-1.74-6.88-3.18-6.88-4.32l.54-.52A37.13,37.13,0,0,1,24,118a17.24,17.24,0,0,0,6,1.52c3.3,0,7.26-2.24,11.93-6.73s7-8.36,7-11.65q0-3.57-8.48-9.71c.32-1.39.88-4,1.68-7.72a26.27,26.27,0,0,1,6.37,6.55A22.35,22.35,0,0,1,51.29,102"/><path class="cls-1" d="M75.19,105.18H62.9q-1.23-23-3.2-43.81c.9-1.21,2.29-3.07,4.17-5.63l2,24.08Q67.4,96,68,97.18l.56.6c.61.67,1.75,1,3.39,1h3.27Z"/><rect class="cls-1" x="72.98" y="98.8" width="12.42" height="6.39"/><rect class="cls-1" x="83.76" y="98.8" width="12.47" height="6.39"/><path class="cls-1" d="M127.08,117.6,124,122.74l-7-4.35,3.09-4.94Zm19.81-12.42H129.61c-1.48,0-2.53-1.17-3.14-3.48-.2-.74-.47-2.46-.83-5.17a24,24,0,0,1-3.88,2.93,28.09,28.09,0,0,0-3.94,2.85,10.17,10.17,0,0,1-7.4,2.87H94.74V98.79H110.6q7,0,15.53-7c-2.46-.54-6.12-1.3-11-2.31l-3.48-.74q-2.65,0-7.13,3.29l-.09-.24a7.76,7.76,0,0,1,.7-2.81q3-7.12,8.65-7.13c2.15,0,5.54.7,10.2,2.09q10.53,3.09,15.32,3.09h2.13q3.06-.09,2.22-.09c-.52,1.48-1.44,3.68-2.74,6.62-.56,0-1.3-.09-2.26-.09-4.44,0-7.87.6-10.32,1.79a3.62,3.62,0,0,0,1.62,3.1l.69.4h16.23Z"/><path class="cls-1" d="M167.22,71l-3.05,5L157,71.82l-2.22,3.92-7.31-4.28,3.05-5.27,6.91,4.37,2.35-3.92Zm2.49,34.15h-3.65a4.61,4.61,0,0,1-2.58-.87,4.4,4.4,0,0,1-1.08-1.62,3.9,3.9,0,0,0-.83-1.34c-.24,0-.72.62-1.48,1.92s-1.32,1.91-1.7,1.91H145.45V98.79h16.68l.18-8.41a89.82,89.82,0,0,1,5.79-7l.09.74a72.53,72.53,0,0,1-1.44,12,16.08,16.08,0,0,0-.27,1.88c.07.49.49.74,1.28.74h2Z"/><path class="cls-1" d="M190,64.67l-3.66,7.22-.92-.25L187.51,93a42.68,42.68,0,0,1-.87,7.13c-.63,3.34-1.26,5-1.86,5H168V98.77h15.76c.18,0,.27-.49.27-1.52q0-6.42-3.75-28.65l-.45-.18a2.25,2.25,0,0,1-1.21-1.86,3.19,3.19,0,0,1,.43-1.55l3.32-5.79c.63-1.12,1.1-1.57,1.39-1.3l.56.61L184,59.6l-.33,1.06a1.23,1.23,0,0,0,.74,1c1.9,1.07,3.74,2.06,5.54,3"/><path class="cls-1" d="M206.06,96.69c0,2.26-1,5.92-3,11q-1.44-16.9-4-40.87-.3-2.65,4.77-11c.27.42.72,7.31,1.35,20.6Z"/><path class="cls-1" d="M251.57,94.47c-.13-2.22-2.44-4.71-7-7.49a80.07,80.07,0,0,0-4.89,6.61,4.86,4.86,0,0,0-.47,2c0,2.06,1.21,3.09,3.65,3.09A18.3,18.3,0,0,0,250,97.07a2.91,2.91,0,0,0,1.61-2.6m2.65-25.87-3,5-7.06-4.26-2.13,4L234.53,69l3.09-5.27,6.89,4.37,2.4-3.92Zm2.17,22c0,1.5-.83,4-2.51,7.57a18.59,18.59,0,0,1-3.59,3.75,15.93,15.93,0,0,1-8.09,3.23,10.23,10.23,0,0,1-5.36-.7,4.29,4.29,0,0,1-2.87-4.15Q234,96,240.85,87l5.88-7.67a24.44,24.44,0,0,0,3.65,3.23A45.93,45.93,0,0,1,254,85.37a6.9,6.9,0,0,1,2.35,5.27"/><path class="cls-1" d="M285.26,102q0,6.8-5.45,14.55c-3.29,4.75-6.77,7.13-10.4,7.13-1.79,0-4.82-.78-9.1-2.38-4.58-1.74-6.89-3.18-6.89-4.32l.54-.52a36.23,36.23,0,0,1,4,1.53,17.31,17.31,0,0,0,6,1.52q5,0,11.93-6.73c4.66-4.48,7-8.36,7-11.65,0-2.38-2.82-5.61-8.5-9.71.34-1.39.9-4,1.71-7.72a27,27,0,0,1,6.37,6.55A22.35,22.35,0,0,1,285.26,102"/><path class="cls-1" d="M301.85,96.69c0,2.26-1,5.92-3,11q-1.46-16.9-4-40.87c-.2-1.77,1.39-5.45,4.8-11,.27.42.69,7.31,1.34,20.6Z"/><path class="cls-1" d="M326.76,70.12l-3.05,5.18L316.47,71l3.13-5.11Zm8,31.84q0,6.8-5.45,14.55c-3.29,4.75-6.77,7.13-10.4,7.13-1.79,0-4.82-.78-9.1-2.38-4.58-1.74-6.86-3.18-6.86-4.32l.51-.52a37.86,37.86,0,0,1,4,1.53,17,17,0,0,0,6,1.52q4.95,0,11.93-6.73t6.95-11.65q0-3.57-8.47-9.71c.31-1.39.87-4,1.68-7.72a26.63,26.63,0,0,1,6.37,6.55A22.35,22.35,0,0,1,334.76,102"/><path class="cls-1" d="M360.62,95.47a9,9,0,0,0-1.3-4.4c-1-1.72-2.13-2.6-3.41-2.67-.92,0-2,.56-3.25,1.87s-1.86,2.39-1.84,3.31.86,1.84,2.36,2.4a9.28,9.28,0,0,0,3.52.7c2,0,3.29-.41,3.92-1.21m4.66.78A38.17,38.17,0,0,1,361.54,113a25.93,25.93,0,0,1-5.09,7.15c-2.62,2.58-5.13,3.77-7.58,3.57a75.68,75.68,0,0,1-8.92-1.48c-4.82-1.05-7.24-2-7.24-2.8,0-.43.31-.65.92-.65a19.85,19.85,0,0,1,4.19.71,17.77,17.77,0,0,0,4.26.72,8.29,8.29,0,0,0,2.78-.42,34.51,34.51,0,0,0,11.77-7.76c4.08-4,6.1-7.65,6-11a12.22,12.22,0,0,0-.51-3.92c-1.37,3-2.78,5-4.26,5.79a8.23,8.23,0,0,1-4.44.53,4.84,4.84,0,0,1-4-3,12.18,12.18,0,0,1-1.15-5.09q0-3.1,3.37-8.66,3.66-5.88,6.43-5.89c1.28,0,2.78,1.63,4.46,4.93a22,22,0,0,1,2.69,10.49"/><polygon class="cls-1" points="5.22 136.62 13.02 157.16 20.9 136.62 26.12 136.62 26.12 163.88 21.59 163.88 21.59 145.07 14.38 163.88 11.41 163.88 4.53 145.07 4.53 163.88 0 163.88 0 136.62 5.22 136.62"/><path class="cls-1" d="M29.73,163.89H34.2V144.2H29.73Zm0-23.38H34.2v-3.9H29.73Z"/><path class="cls-1" d="M37.39,144.2h4.53v1.61a9.17,9.17,0,0,1,2.81-1.45,9.86,9.86,0,0,1,3-.48,8.7,8.7,0,0,1,2.79.42,5.5,5.5,0,0,1,2,1.2,4.81,4.81,0,0,1,1.28,1.89,6.56,6.56,0,0,1,.44,2.5v14H49.87V150.23a3.59,3.59,0,0,0-.7-2.51,2.55,2.55,0,0,0-2-.74,5.18,5.18,0,0,0-2.07.43,6,6,0,0,0-1.68,1.16,5.09,5.09,0,0,0-1.14,1.64,4.89,4.89,0,0,0-.41,1.91v11.77H37.39Z"/><path class="cls-1" d="M57.85,163.89h4.49V144.2H57.85Zm0-23.38h4.49v-3.9H57.85Z"/><path class="cls-1" d="M70.11,157.37a5.38,5.38,0,0,0,.31,1.75,3.31,3.31,0,0,0,.77,1.2l1.1.65a4.3,4.3,0,0,0,1.38.2,7.8,7.8,0,0,0,1.32-.12,4,4,0,0,0,1.26-.43l1-.81a2.21,2.21,0,0,0,.37-1.32,2,2,0,0,0-.35-1.22l-1-.87a6.86,6.86,0,0,0-1.36-.65c-.53-.21-1.06-.41-1.63-.59-.85-.31-1.68-.61-2.54-.94a11.87,11.87,0,0,1-2.25-1.15,6.4,6.4,0,0,1-1.65-1.63,4.12,4.12,0,0,1-.63-2.31,4.34,4.34,0,0,1,.61-2.32,5.2,5.2,0,0,1,1.65-1.65,7.76,7.76,0,0,1,2.39-.95,11.75,11.75,0,0,1,2.81-.32,12.48,12.48,0,0,1,3.06.34,7,7,0,0,1,2.46,1.06,5.3,5.3,0,0,1,1.69,1.8,5.93,5.93,0,0,1,.67,2.62h-.33l-.5,0H77.06a3.55,3.55,0,0,0-.41-1.3l-.75-.83-1-.45L73.67,147a3.43,3.43,0,0,0-2.18.59,2,2,0,0,0-.75,1.59l.35,1.11,1,.86a8.69,8.69,0,0,0,1.4.69c.53.2,1.06.4,1.63.59.83.3,1.66.63,2.5,1a12.72,12.72,0,0,1,2.27,1.18,6.12,6.12,0,0,1,1.65,1.54,3.57,3.57,0,0,1,.63,2.07,5.21,5.21,0,0,1-2.56,4.7,8.45,8.45,0,0,1-2.68,1.07,14.55,14.55,0,0,1-3.21.35,10.87,10.87,0,0,1-3.11-.43,7.93,7.93,0,0,1-2.56-1.3,6.63,6.63,0,0,1-1.77-2.15,7.24,7.24,0,0,1-.73-3Z"/><path class="cls-1" d="M91.09,138.54v5.65H94v3.07H91.09v12a2.41,2.41,0,0,0,.34,1.49l.92.4.69-.08c.32,0,.81-.12,1.46-.24v3c-.55.15-1.12.25-1.69.35a11.19,11.19,0,0,1-1.56.12,7.44,7.44,0,0,1-1.79-.22,4.13,4.13,0,0,1-1.5-.69,3.52,3.52,0,0,1-1-1.24,4.33,4.33,0,0,1-.36-1.87v-13h-3v-3.07h3v-5.65Z"/><path class="cls-1" d="M97,144.2h4l.24,1.79a5.53,5.53,0,0,1,1.89-1.56,5.06,5.06,0,0,1,2.27-.55l1,.12,1.18.32V148a10.25,10.25,0,0,0-2.24-.69,3.24,3.24,0,0,0-1.62.39,3.63,3.63,0,0,0-1.22,1.05,4.38,4.38,0,0,0-.75,1.53,6.12,6.12,0,0,0-.27,1.82v11.79H97Z"/><path class="cls-1" d="M117.5,157.66l4.62-13.45h4.65l-8.35,23.68a7.87,7.87,0,0,1-1,2,5.83,5.83,0,0,1-1.3,1.32,4.54,4.54,0,0,1-2.86,1,7.54,7.54,0,0,1-1.3-.1,7.16,7.16,0,0,1-1.59-.47v-3.31l.7.26.73.29.65.2.42.06.51-.26.45-.71.36-.88.29-.81.83-2.66-7.23-19.6h4.77Z"/><path class="cls-1" d="M140.92,154.05a9.52,9.52,0,0,0,.35,2.74,6.73,6.73,0,0,0,1,2.24,4.87,4.87,0,0,0,1.57,1.5,4.11,4.11,0,0,0,2.07.55,4,4,0,0,0,2.07-.55,4.62,4.62,0,0,0,1.58-1.5,6.77,6.77,0,0,0,1-2.24,9.87,9.87,0,0,0,.37-2.74,10,10,0,0,0-.37-2.72,6.61,6.61,0,0,0-1-2.26,4.68,4.68,0,0,0-1.58-1.52,3.92,3.92,0,0,0-2.07-.57,4,4,0,0,0-2.07.57,4.94,4.94,0,0,0-1.57,1.52,6.57,6.57,0,0,0-1,2.26,9.61,9.61,0,0,0-.35,2.72m-4.47,0a12.26,12.26,0,0,1,.63-4,9.54,9.54,0,0,1,1.83-3.25,8.36,8.36,0,0,1,3-2.17,10.46,10.46,0,0,1,8.12,0,8.5,8.5,0,0,1,3,2.17,9.73,9.73,0,0,1,1.84,3.25,12.76,12.76,0,0,1,0,7.92,9.26,9.26,0,0,1-1.84,3.23,8.62,8.62,0,0,1-3,2.17,10.46,10.46,0,0,1-8.12,0,8.48,8.48,0,0,1-3-2.17,9.09,9.09,0,0,1-1.83-3.23,12.17,12.17,0,0,1-.63-4"/><path class="cls-1" d="M160.66,144.2v-4.37a3.82,3.82,0,0,1,.33-1.58,3.57,3.57,0,0,1,1-1.28,4.27,4.27,0,0,1,1.55-.83,5.81,5.81,0,0,1,2.05-.31,4.9,4.9,0,0,1,1.54.27,6.74,6.74,0,0,1,1.69.77v3l-1.6-.63-.68-.25-.93.33a1.29,1.29,0,0,0-.39,1.07v3.82h3.34v3.15h-3.34v16.54h-4.53V147.35h-3.27V144.2Z"/><path class="cls-1" d="M184,149.89a16.71,16.71,0,0,0,.71,5.14,11.19,11.19,0,0,0,1.89,3.63,7.42,7.42,0,0,0,2.64,2.14,7,7,0,0,0,3,.69,6.28,6.28,0,0,0,2.82-.63,7.35,7.35,0,0,0,2.19-1.65,9.28,9.28,0,0,0,1.59-2.37,13.26,13.26,0,0,0,.91-2.73h4.55a15.11,15.11,0,0,1-1.4,4.11,12,12,0,0,1-2.5,3.35,11.22,11.22,0,0,1-3.57,2.25,12.22,12.22,0,0,1-4.59.84,13.19,13.19,0,0,1-5.26-1,10.88,10.88,0,0,1-4-2.9,13.06,13.06,0,0,1-2.58-4.66,20.28,20.28,0,0,1-.89-6.23,15.5,15.5,0,0,1,.39-3.52A17.23,17.23,0,0,1,181,143a13.38,13.38,0,0,1,1.83-2.86,11.69,11.69,0,0,1,5.65-3.78,13.2,13.2,0,0,1,3.74-.53,14.87,14.87,0,0,1,4.59.67,11,11,0,0,1,6,4.76,13.78,13.78,0,0,1,1.56,3.61h-4.63a9.58,9.58,0,0,0-2.9-4.45A7.33,7.33,0,0,0,192.2,139a6.51,6.51,0,0,0-3.34.88,8.38,8.38,0,0,0-2.57,2.37,11.5,11.5,0,0,0-1.69,3.48,13.82,13.82,0,0,0-.61,4.16"/><path class="cls-1" d="M211.68,154.05a10.27,10.27,0,0,0,.35,2.74,7.39,7.39,0,0,0,1,2.24,4.87,4.87,0,0,0,1.57,1.5,4.11,4.11,0,0,0,2.07.55,4,4,0,0,0,2.07-.55,4.62,4.62,0,0,0,1.58-1.5,6.77,6.77,0,0,0,1-2.24,9.87,9.87,0,0,0,.37-2.74,10,10,0,0,0-.37-2.72,6.61,6.61,0,0,0-1-2.26,4.68,4.68,0,0,0-1.58-1.52,3.92,3.92,0,0,0-2.07-.57,4,4,0,0,0-2.07.57,4.94,4.94,0,0,0-1.57,1.52,7.2,7.2,0,0,0-1,2.26,10.39,10.39,0,0,0-.35,2.72m-4.47,0a12.26,12.26,0,0,1,.63-4,9.54,9.54,0,0,1,1.83-3.25,8.36,8.36,0,0,1,3-2.17,9.5,9.5,0,0,1,4.06-.82,9.69,9.69,0,0,1,4.08.82,8.51,8.51,0,0,1,3,2.17,9.58,9.58,0,0,1,1.85,3.25,12.76,12.76,0,0,1,0,7.92,9.13,9.13,0,0,1-1.85,3.23,8.63,8.63,0,0,1-3,2.17,10,10,0,0,1-4.08.82,9.81,9.81,0,0,1-4.06-.82,8.48,8.48,0,0,1-3-2.17,9.09,9.09,0,0,1-1.83-3.23,12.17,12.17,0,0,1-.63-4"/><path class="cls-1" d="M229.27,144.2h4.47v1.46a7.25,7.25,0,0,1,2.54-1.38,9.4,9.4,0,0,1,2.6-.4,6.65,6.65,0,0,1,2.74.59,5.82,5.82,0,0,1,2.33,2,6.22,6.22,0,0,1,1.32-1.2,9.57,9.57,0,0,1,1.55-.81,9.44,9.44,0,0,1,1.64-.47,11.45,11.45,0,0,1,1.63-.14,7.58,7.58,0,0,1,2.74.46,6.6,6.6,0,0,1,2.17,1.28,6.4,6.4,0,0,1,1.41,1.93,5.76,5.76,0,0,1,.5,2.42v14h-4.46V150.72a5.15,5.15,0,0,0-.27-1.81,3.23,3.23,0,0,0-.69-1.15l-.93-.59-1-.19a3.34,3.34,0,0,0-1.48.37,4.08,4.08,0,0,0-1.32,1,5.29,5.29,0,0,0-1,1.54,5,5,0,0,0-.36,1.91v12h-4.49V150.72a5.4,5.4,0,0,0-.27-1.81,3.5,3.5,0,0,0-.65-1.15l-.89-.59-.91-.19a3.45,3.45,0,0,0-1.75.49,5,5,0,0,0-1.4,1.24,5.83,5.83,0,0,0-1,1.63,5,5,0,0,0-.34,1.72v11.83h-4.47Z"/><path class="cls-1" d="M260.3,144.2h4.47v1.46a7.34,7.34,0,0,1,2.54-1.38,9.46,9.46,0,0,1,2.6-.4,6.65,6.65,0,0,1,2.74.59,5.78,5.78,0,0,1,2.34,2,5.77,5.77,0,0,1,1.32-1.2,8.72,8.72,0,0,1,1.54-.81,9.29,9.29,0,0,1,1.65-.47,11.31,11.31,0,0,1,1.62-.14,7.64,7.64,0,0,1,2.75.46,6.7,6.7,0,0,1,2.17,1.28,6.37,6.37,0,0,1,1.4,1.93,5.62,5.62,0,0,1,.51,2.42v14h-4.47V150.72a4.93,4.93,0,0,0-.27-1.81,3.23,3.23,0,0,0-.69-1.15l-.93-.59-1-.19a3.34,3.34,0,0,0-1.48.37,4.19,4.19,0,0,0-1.32,1,5.07,5.07,0,0,0-.95,1.54,4.82,4.82,0,0,0-.37,1.91v12h-4.49V150.72a5.69,5.69,0,0,0-.26-1.81,4.4,4.4,0,0,0-.65-1.15l-.9-.59-.91-.19a3.4,3.4,0,0,0-1.75.49,5.17,5.17,0,0,0-1.4,1.24,5.57,5.57,0,0,0-.95,1.63,4.84,4.84,0,0,0-.35,1.72v11.83H260.3Z"/><path class="cls-1" d="M305.44,152.09a7.17,7.17,0,0,0-.43-2,4.81,4.81,0,0,0-1-1.6,4.46,4.46,0,0,0-1.49-1.08,4.78,4.78,0,0,0-1.95-.38,4.21,4.21,0,0,0-1.81.4,5.42,5.42,0,0,0-1.46,1.12,5.83,5.83,0,0,0-1,1.63,5.46,5.46,0,0,0-.45,2Zm-9.57,2.8a8,8,0,0,0,.47,2.35,6.77,6.77,0,0,0,1.05,2,5.47,5.47,0,0,0,1.53,1.4,3.71,3.71,0,0,0,1.89.5c2.25,0,3.84-1.25,4.73-3.79h4.18a8.08,8.08,0,0,1-1.2,2.92,8.19,8.19,0,0,1-2,2.18,9.68,9.68,0,0,1-2.66,1.36,10,10,0,0,1-3,.44,9,9,0,0,1-4-.83,9.13,9.13,0,0,1-3-2.3,10.49,10.49,0,0,1-1.91-3.35,11.84,11.84,0,0,1-.69-4,10.69,10.69,0,0,1,.69-3.78,9.46,9.46,0,0,1,1.89-3.15,8.9,8.9,0,0,1,3-2.17,9.27,9.27,0,0,1,4-.81,9.65,9.65,0,0,1,3.85.73,8.2,8.2,0,0,1,2.91,2,8.82,8.82,0,0,1,1.85,3.05,11.17,11.17,0,0,1,.65,3.82v1.42Z"/><path class="cls-1" d="M312.87,144.2h4l.24,1.79a5.53,5.53,0,0,1,1.89-1.56,5.06,5.06,0,0,1,2.27-.55l1,.12,1.18.32V148a10.25,10.25,0,0,0-2.24-.69,3.21,3.21,0,0,0-1.62.39,3.54,3.54,0,0,0-1.22,1.05,4.38,4.38,0,0,0-.75,1.53,5.81,5.81,0,0,0-.27,1.82v11.79h-4.49Z"/><path class="cls-1" d="M338.73,150.7a5.7,5.7,0,0,0-1.5-2.86,3.6,3.6,0,0,0-2.46-.86,3.77,3.77,0,0,0-2,.55,4.59,4.59,0,0,0-1.46,1.48,7.21,7.21,0,0,0-.94,2.16,10.63,10.63,0,0,0-.3,2.56,12.5,12.5,0,0,0,.3,2.74,8.89,8.89,0,0,0,.94,2.38,5.18,5.18,0,0,0,1.44,1.66,3.12,3.12,0,0,0,1.93.63,3,3,0,0,0,1.48-.34l1.16-1a6.45,6.45,0,0,0,.83-1.46,10.27,10.27,0,0,0,.51-1.79h4.71a10.55,10.55,0,0,1-.89,3.25,7.66,7.66,0,0,1-4.49,4,10.47,10.47,0,0,1-3.41.53,8.17,8.17,0,0,1-4-1,8.33,8.33,0,0,1-2.8-2.43,11,11,0,0,1-1.62-3.42,14.6,14.6,0,0,1-.51-3.75,11.45,11.45,0,0,1,.65-3.88,9.22,9.22,0,0,1,1.87-3.13,8.27,8.27,0,0,1,2.9-2.09,9.19,9.19,0,0,1,3.8-.78,10.07,10.07,0,0,1,3.33.53,7.85,7.85,0,0,1,2.52,1.43,7.45,7.45,0,0,1,1.73,2.15,9.47,9.47,0,0,1,1,2.72Z"/><path class="cls-1" d="M360.46,152.09a6.55,6.55,0,0,0-.42-2,5.13,5.13,0,0,0-1-1.6,4.6,4.6,0,0,0-1.5-1.08,4.78,4.78,0,0,0-1.95-.38,4.21,4.21,0,0,0-1.81.4,5.27,5.27,0,0,0-1.46,1.12,5.85,5.85,0,0,0-1,1.63,5.67,5.67,0,0,0-.44,2Zm-9.56,2.8a8.31,8.31,0,0,0,.46,2.35,6.79,6.79,0,0,0,1.06,2,5.73,5.73,0,0,0,1.52,1.4,3.71,3.71,0,0,0,1.89.5c2.28,0,3.84-1.25,4.74-3.79h4.18a8.08,8.08,0,0,1-1.2,2.92,8.52,8.52,0,0,1-2.05,2.18,10,10,0,0,1-2.64,1.36,10.29,10.29,0,0,1-3,.44,9,9,0,0,1-4-.83,8.76,8.76,0,0,1-3-2.3,9.84,9.84,0,0,1-1.93-3.35,11.83,11.83,0,0,1-.67-4,10.67,10.67,0,0,1,.67-3.78,9.6,9.6,0,0,1,1.88-3.15,8.94,8.94,0,0,1,3-2.17,9.26,9.26,0,0,1,4-.81,9.73,9.73,0,0,1,3.86.73,8.29,8.29,0,0,1,2.91,2,8.65,8.65,0,0,1,1.84,3.05,10.94,10.94,0,0,1,.65,3.82v1.42Z"/></g></g></svg>