<?xml version="1.0" encoding="UTF-8"?>
<svg version="1.1" viewBox="0 0 20 18" xmlns="http://www.w3.org/2000/svg">
<title>F362748E-DC7D-4BC2-971F-35F2EA9BD628</title>
<desc>Created with sketchtool.</desc>
<g fill="none" fill-rule="evenodd">
<g transform="translate(-1253 -975)" fill="#005850" fill-rule="nonzero">
<g transform="translate(0 944)">
<g transform="translate(1131.8 27)">
<path d="m130.41 8.9639-0.96556 0.91514c-0.5335 0.50564-0.53252 1.328 0.003241 1.8358l3.2173 3.0493c0.53923 0.51107 1.4029 0.50916 1.9369 0.0030719l0.96556-0.91514c0.35696-0.33832 0.9343-0.33965 1.2918-8.42e-4l3.5442 3.3591c0.53454 0.50662 0.53702 1.3257-0.002212 1.8367l-1.9327 1.8318c-1.2452 1.1802-3.5057 1.4905-5.0174 0.63319 0 0-2.4213-0.96557-6.24-4.5848-3.8187-3.6192-4.875-5.9568-4.875-5.9568-0.88073-1.4464-0.5819-3.5789 0.65994-4.7559l1.9327-1.8318c0.53576-0.50778 1.4-0.5119 1.9379-0.0020966l3.5442 3.3591c0.35647 0.33785 0.35727 0.88486-8.89e-4 1.2243zm-6.1246-1.5274c-0.65961 0.62516-0.77122 1.8762-0.36998 2.6701 0 0 0.64406 1.1077 0.93558 1.5154 0.86164 1.2049 2.0599 2.5767 3.6494 4.0832 1.5892 1.5062 3.0276 2.6349 4.284 3.44 0.42415 0.27181 1.603 0.8839 1.603 0.8839 0.76325 0.37859 2.1203 0.26409 2.7917-0.37226l1.6135-1.5292-2.5787-2.4441-0.32253 0.30568c-1.2475 1.1824-3.2658 1.1815-4.5157-0.0030719l-3.2173-3.0493c-1.2468-1.1817-1.2499-3.0983-0.003241-4.2798l0.32253-0.30568-2.5787-2.4441-1.6135 1.5292z"/>
</g>
</g>
</g>
</g>
</svg>
