<?xml version="1.0" encoding="UTF-8"?>
<svg version="1.1" viewBox="0 0 21 17" xmlns="http://www.w3.org/2000/svg">
<title>A640E6E3-F24A-410E-8BD5-B67F4D7B68FB</title>
<desc>Created with sketchtool.</desc>
<g fill="none" fill-rule="evenodd">
<g transform="translate(-98 -976)" fill="#638984">
<g transform="translate(0 944)">
<g transform="translate(98.038 31)">
<path d="m5.8045 12.704c0.64423 0.4019 0.5674 1.2987-0.13726 1.6021-0.26398 0.11369-2.6106 0.69855-2.6106 0.69855 0.93493 0.50819 2.2454 0.77352 3.9586 0.77352 5.4971 0 9.5082-3.7262 9.5123-9.3032 7.08e-5 -0.096311-0.0046427-0.36853-0.0046427-0.39466 0-1.9205-1.0915-3.2418-2.9972-3.2326-1.9193 0.0092271-3.0076 1.321-3.0076 3.2326 0 0.11098-0.0031764 0.80032-0.0031764 0.91239 0 0.55395-0.52472 0.9833-1.1207 0.91696-2.5101-0.27941-4.7891-1.2962-6.5476-2.8717 0 0-0.2312 0.80444-0.28769 1.1742 0.032697 0.035849 0.65333 0.61544 1.0072 0.84864 0.27155 0.17894 0.56558 0.34117 0.88247 0.48264 0.49757 0.22214 0.70579 0.77446 0.46509 1.2336-0.2407 0.45919-0.83919 0.65135-1.3368 0.42922-0.31469-0.14049-0.61273-0.29657-0.89431-0.46602 0.39621 1.4932 1.3967 2.8875 3.1218 3.9637zm13.163-9.8469c1.0089-0.049989 1.3635 0.52931 0.78148 1.2944l-1.2318 1.6193c0.0049118 0.10232 0.012114 0.58227 0.012023 0.70546-0.0048469 6.5937-4.9086 11.149-11.514 11.149-3.262 0-5.3694-0.78646-6.8217-2.6216-0.43326-0.54747-0.10107-1.3248 0.62049-1.452 0.033098-0.0058326 2.343-0.46656 2.343-0.46656-3.0505-2.8466-3.3318-6.8904-1.5272-10.188 0.33298-0.6084 1.2409-0.68576 1.6889-0.1439 1.2973 1.5689 3.1201 2.6695 5.2036 3.1365 0.099465-2.7724 1.9301-4.875 4.9928-4.8897 1.8268-0.0087821 3.2174 0.74003 4.0646 1.9253l1.3876-0.06875z"/>
</g>
</g>
</g>
</g>
</svg>
