<svg xmlns="http://www.w3.org/2000/svg" width="60.002" height="40" viewBox="0 0 60.002 40">
  <g id="_2030_vision" data-name="2030 vision" transform="translate(0 0)">
    <path id="Path_1593" d="M0,.776l.742.706L1.484.74.706,0Z" transform="translate(20.113 11.081)" fill="#d1fcfa"/>
    <path id="Path_1594" d="M0,.776l.742.706L1.484.74.706,0Z" transform="translate(22.628 11.081)" fill="#d1fcfa"/>
    <path id="Path_1595" d="M0,.607l.607.573.54-.607L.574,0Z" transform="translate(21.523 12.214)" fill="#d1fcfa"/>
    <path id="Path_1596" d="M0,.573l.607.573.54-.573L.574,0Z" transform="translate(23.727 12.559)" fill="#d1fcfa"/>
    <path id="Rectangle_510" d="M.1.1H.9V.9H.1Z" transform="matrix(0.691, -0.722, 0.722, 0.691, 20.415, 13.726)" fill="#d1fcfa"/>
    <path id="Rectangle_511" d="M.1.1H.9V.9H.1Z" transform="translate(22.42 13.81) rotate(-46.216)" fill="#d1fcfa"/>
    <path id="Rectangle_512" d="M.213.213H.786V.786H.213Z" transform="translate(21.476 14.498) rotate(-46.216)" fill="#d1fcfa"/>
    <path id="Path_1597" d="M.1.5.5.9.9.467.462.1Z" transform="translate(23.28 14.314)" fill="#d1fcfa"/>
    <path id="Rectangle_513" d="M0,0H1.315V1.315H0Z" transform="translate(26.861 11.621) rotate(-10.393)" fill="#d1fcfa"/>
    <rect id="Rectangle_514" width="1.045" height="1.045" transform="translate(25.154 12.143) rotate(-10.369)" fill="#d1fcfa"/>
    <path id="Rectangle_515" d="M0,0H1.045V1.045H0Z" transform="translate(27.187 13.622) rotate(-10.387)" fill="#d1fcfa"/>
    <path id="Rectangle_516" d="M.1.1H.9V.9H.1Z" transform="translate(25.611 13.695) rotate(-10.393)" fill="#d1fcfa"/>
    <path id="Rectangle_517" d="M.1.1H.9V.9H.1Z" transform="translate(27.195 15.245) rotate(-10.393)" fill="#d1fcfa"/>
    <path id="Rectangle_518" d="M.1.1H.9V.9H.1Z" transform="translate(24.374 14.04) rotate(-10.393)" fill="#d1fcfa"/>
    <path id="Rectangle_519" d="M.1.1H.9V.9H.1Z" transform="translate(25.888 15.102) rotate(-10.393)" fill="#d1fcfa"/>
    <path id="Rectangle_520" d="M.213.213H.786V.786H.213Z" transform="translate(24.704 15.122) rotate(-10.404)" fill="#d1fcfa"/>
    <path id="Rectangle_521" d="M.213.213H.786V.786H.213Z" transform="translate(25.803 16.291) rotate(-10.369)" fill="#d1fcfa"/>
    <path id="Rectangle_522" d="M0,0H1.315V1.315H0Z" transform="matrix(0.429, -0.903, 0.903, 0.429, 30.203, 17.098)" fill="#d1fcfa"/>
    <path id="Path_1598" d="M0,.941l.941.438L1.412.438.471,0Z" transform="translate(28.586 15.347)" fill="#d1fcfa"/>
    <path id="Path_1599" d="M0,.941l.941.471L1.412.471.471,0Z" transform="translate(29.378 17.722)" fill="#d1fcfa"/>
    <path id="Path_1600" d="M0,.74l.742.337L1.113.371.371,0Z" transform="translate(28.203 16.999)" fill="#d1fcfa"/>
    <path id="Path_1601" d="M0,.742l.742.337L1.113.337.371,0Z" transform="translate(28.583 19.199)" fill="#d1fcfa"/>
    <path id="Path_1602" d="M0,.74l.746.339L1.083.373.341,0Z" transform="translate(27.032 16.551)" fill="#d1fcfa"/>
    <path id="Path_1603" d="M0,.742l.706.337L1.077.337.335,0Z" transform="translate(27.618 18.304)" fill="#d1fcfa"/>
    <path id="Rectangle_523" d="M.214.214H.787V.787H.214Z" transform="matrix(0.43, -0.903, 0.903, 0.43, 26.512, 18.382)" fill="#d1fcfa"/>
    <g id="Group_408" transform="translate(26.047 18.408)">
      <path id="Rectangle_524" d="M.213.213H.786V.786H.213Z" transform="translate(0.715 1.619) rotate(-64.537)" fill="#d1fcfa"/>
      <path id="Path_1604" d="M.64,1.753l1.147-.607L1.147,0,0,.607Z" transform="translate(4.16 3.254)" fill="#d1fcfa"/>
    </g>
    <path id="Path_1605" d="M0,.473l.506.941L1.42.906.914,0Z" transform="translate(29.411 20.234)" fill="#d1fcfa"/>
    <path id="Path_1606" d="M0,.506l.506.911L1.417.911.911,0Z" transform="translate(28.655 22.609)" fill="#d1fcfa"/>
    <path id="Path_1607" d="M0,.405l.371.706L1.113.74.706,0Z" transform="translate(28.273 21.262)" fill="#d1fcfa"/>
    <path id="Path_1608" d="M0,.371l.4.706L1.106.706.735,0Z" transform="translate(27.274 23.293)" fill="#d1fcfa"/>
    <path id="Path_1609" d="M0,.371l.4.706L1.106.706.735,0Z" transform="translate(27.549 20.232)" fill="#d1fcfa"/>
    <path id="Path_1610" d="M0,.407l.4.706L1.106.742.735,0Z" transform="translate(26.998 21.949)" fill="#d1fcfa"/>
    <path id="Rectangle_525" d="M.213.213H.786V.786H.213Z" transform="translate(26.507 21.212) rotate(-28.71)" fill="#d1fcfa"/>
    <path id="Rectangle_526" d="M.213.213H.786V.786H.213Z" transform="translate(25.739 22.613) rotate(-28.71)" fill="#d1fcfa"/>
    <path id="Rectangle_527" d="M0,0H1.316V1.316H0Z" transform="matrix(0.123, -0.992, 0.992, 0.123, 27.081, 27.863)" fill="#d1fcfa"/>
    <path id="Rectangle_528" d="M0,0H1.045V1.045H0Z" transform="translate(27.347 25.829) rotate(-82.932)" fill="#d1fcfa"/>
    <rect id="Rectangle_529" width="1.045" height="1.045" transform="translate(25.355 27.317) rotate(-82.912)" fill="#d1fcfa"/>
    <path id="Rectangle_530" d="M.095.095H.9V.9H.095Z" transform="matrix(0.123, -0.992, 0.992, 0.123, 25.799, 25.791)" fill="#d1fcfa"/>
    <path id="Rectangle_531" d="M.095.095H.9V.9H.095Z" transform="matrix(0.123, -0.992, 0.992, 0.123, 23.813, 26.839)" fill="#d1fcfa"/>
    <path id="Rectangle_532" d="M.1.1H.9V.9H.1Z" transform="translate(25.844 24.501) rotate(-82.935)" fill="#d1fcfa"/>
    <path id="Rectangle_533" d="M.1.1H.9V.9H.1Z" transform="translate(24.379 25.608) rotate(-82.932)" fill="#d1fcfa"/>
    <path id="Rectangle_534" d="M.213.213H.786V.786H.213Z" transform="translate(24.716 24.467) rotate(-82.932)" fill="#d1fcfa"/>
    <path id="Rectangle_535" d="M.213.213H.786V.786H.213Z" transform="translate(23.266 25.177) rotate(-82.932)" fill="#d1fcfa"/>
    <path id="Path_1611" d="M0,.941l.978.877L1.855.877.914,0Z" transform="translate(21.391 28.258)" fill="#d1fcfa"/>
    <path id="Path_1612" d="M0,.941l.978.877L1.855.877.914,0Z" transform="translate(21.218 9.603)" fill="#d1fcfa"/>
    <path id="Path_1613" d="M0,.776l.742.706L1.484.74.706,0Z" transform="translate(22.834 26.945)" fill="#d1fcfa"/>
    <path id="Path_1614" d="M0,.742l.742.706L1.484.706.708,0Z" transform="translate(20.32 27.014)" fill="#d1fcfa"/>
    <path id="Path_1615" d="M0,.574l.573.573L1.146.54.539,0Z" transform="translate(21.73 26.183)" fill="#d1fcfa"/>
    <path id="Rectangle_536" d="M.1.1H.9V.9H.1Z" transform="translate(19.359 26.483) rotate(-47.148)" fill="#d1fcfa"/>
    <path id="Path_1616" d="M0,.607l.607.573L1.18.573.573,0Z" transform="translate(22.485 25.152)" fill="#d1fcfa"/>
    <path id="Path_1617" d="M0,.606l.607.54.54-.573L.54,0Z" transform="translate(20.662 25.186)" fill="#d1fcfa"/>
    <path id="Rectangle_537" d="M.213.213H.786V.786H.213Z" transform="translate(21.473 25.091) rotate(-47.148)" fill="#d1fcfa"/>
    <path id="Rectangle_538" d="M.213.213H.787V.787H.213Z" transform="translate(19.896 24.795) rotate(-47.187)" fill="#d1fcfa"/>
    <rect id="Rectangle_539" width="1.316" height="1.316" transform="matrix(0.981, -0.196, 0.196, 0.981, 15.999, 26.983)" fill="#d1fcfa"/>
    <rect id="Rectangle_540" width="1.045" height="1.045" transform="translate(18.017 26.607) rotate(-11.31)" fill="#d1fcfa"/>
    <path id="Rectangle_541" d="M0,0H1.045V1.045H0Z" transform="translate(15.956 25.197) rotate(-11.338)" fill="#d1fcfa"/>
    <path id="Rectangle_542" d="M.1.1H.9V.9H.1Z" transform="matrix(0.981, -0.196, 0.196, 0.981, 17.583, 25.126)" fill="#d1fcfa"/>
    <path id="Rectangle_543" d="M.1.1H.9V.9H.1Z" transform="matrix(0.981, -0.196, 0.196, 0.981, 18.825, 24.779)" fill="#d1fcfa"/>
    <path id="Rectangle_544" d="M.1.1H.9V.9H.1Z" transform="matrix(0.981, -0.196, 0.196, 0.981, 17.306, 23.714)" fill="#d1fcfa"/>
    <path id="Rectangle_545" d="M.213.213H.786V.786H.213Z" transform="matrix(0.981, -0.196, 0.196, 0.981, 18.496, 23.694)" fill="#d1fcfa"/>
    <path id="Rectangle_546" d="M.213.213H.786V.786H.213Z" transform="translate(17.36 22.528) rotate(-11.31)" fill="#d1fcfa"/>
    <path id="Rectangle_547" d="M0,0H1.315V1.315H0Z" transform="translate(12.391 23.246) rotate(-65.537)" fill="#d1fcfa"/>
    <path id="Path_1618" d="M0,.941l.941.438L1.379.438.438,0Z" transform="translate(14.361 22.92)" fill="#d1fcfa"/>
    <path id="Path_1619" d="M0,.94l.941.438L1.379.4.4,0Z" transform="translate(13.535 20.578)" fill="#d1fcfa"/>
    <path id="Rectangle_548" d="M.1.1H.9V.9H.1Z" transform="translate(14.89 22.364) rotate(-65.506)" fill="#d1fcfa"/>
    <path id="Rectangle_549" d="M.1.1h.81v.81H.1Z" transform="matrix(0.415, -0.91, 0.91, 0.415, 14.458, 20.166)" fill="#d1fcfa"/>
    <path id="Rectangle_550" d="M.1.1H.9V.9H.1Z" transform="matrix(0.415, -0.91, 0.91, 0.415, 15.472, 21.066)" fill="#d1fcfa"/>
    <path id="Path_1620" d="M0,.641.641,1.788l1.147-.641L1.147,0Z" transform="translate(12.194 16.245)" fill="#d1fcfa"/>
    <g id="Group_409" transform="translate(13.445 15.358)">
      <path id="Path_1621" d="M0,.742l.738.333L1.075.333.338,0Z" transform="translate(2.562 8.025)" fill="#d1fcfa"/>
      <path id="Rectangle_551" d="M.1.1H.9V.9H.1Z" transform="translate(2.591 7.368) rotate(-65.462)" fill="#d1fcfa"/>
      <path id="Rectangle_552" d="M.213.213H.786V.786H.213Z" transform="translate(2.949 6.346) rotate(-65.437)" fill="#d1fcfa"/>
      <path id="Path_1622" d="M0,.54l.54.911.911-.54L.91,0Z" transform="translate(0.675 0.337)" fill="#d1fcfa"/>
      <path id="Path_1623" d="M0,.371l.4.706.706-.4L.706,0Z" transform="translate(2.326)" fill="#d1fcfa"/>
      <path id="Rectangle_553" d="M.213.213H.786V.786H.213Z" transform="translate(2.744 4.792) rotate(-65.449)" fill="#d1fcfa"/>
      <path id="Path_1624" d="M.506,1.447l.911-.54L.911,0,0,.537Z" transform="translate(0 2.7)" fill="#d1fcfa"/>
      <path id="Path_1625" d="M0,.4l.4.706.706-.4L.706,0Z" transform="translate(1.416 1.961)" fill="#d1fcfa"/>
      <path id="Path_1626" d="M.706,0,0,.371l.4.706L1.106.706Z" transform="translate(2.125 3)" fill="#d1fcfa"/>
      <path id="Path_1627" d="M0,.4l.4.706.706-.4L.706,0Z" transform="translate(2.63 1.253)" fill="#d1fcfa"/>
      <path id="Rectangle_554" d="M.213.213H.786V.786H.213Z" transform="translate(2.876 2.734) rotate(-29.677)" fill="#d1fcfa"/>
    </g>
    <g id="Group_410" transform="translate(15.624 10.657)">
      <path id="Rectangle_555" d="M.214.214H.787V.787H.214Z" transform="translate(1.474 5.897) rotate(-29.667)" fill="#d1fcfa"/>
      <path id="Rectangle_556" d="M0,0H1.315V1.315H0Z" transform="matrix(0.106, -0.994, 0.994, 0.106, 0, 2.307)" fill="#d1fcfa"/>
      <path id="Rectangle_557" d="M0,0H1.045V1.045H0Z" transform="translate(0.062 4.061) rotate(-83.892)" fill="#d1fcfa"/>
    </g>
    <g id="Group_411" transform="translate(16.378 12.189)">
      <rect id="Rectangle_558" width="1.045" height="1.045" transform="translate(1.264 1.04) rotate(-83.892)" fill="#d1fcfa"/>
      <path id="Rectangle_559" d="M.1.1H.9V.9H.1Z" transform="translate(0.895 2.527) rotate(-83.892)" fill="#d1fcfa"/>
    </g>
    <path id="Rectangle_560" d="M.1.1H.9V.9H.1Z" transform="matrix(0.106, -0.994, 0.994, 0.106, 19.237, 13.638)" fill="#d1fcfa"/>
    <path id="Rectangle_561" d="M.1.1H.9V.9H.1Z" transform="translate(17.242 16.014) rotate(-83.892)" fill="#d1fcfa"/>
    <path id="Rectangle_562" d="M.1.1H.9V.9H.1Z" transform="translate(18.718 14.867) rotate(-83.856)" fill="#d1fcfa"/>
    <path id="Rectangle_563" d="M.213.213H.786V.786H.213Z" transform="matrix(0.106, -0.994, 0.994, 0.106, 18.359, 16.028)" fill="#d1fcfa"/>
    <path id="Rectangle_564" d="M.213.213H.786V.786H.213Z" transform="matrix(0.106, -0.994, 0.994, 0.106, 19.821, 15.283)" fill="#d1fcfa"/>
    <path id="Path_1628" d="M7.782,4.578a3.074,3.074,0,0,0-1.416-.1,2.047,2.047,0,0,0-.607.169c-.034,0-.034,0-.067.034a3.5,3.5,0,0,1-.337.135.734.734,0,0,0-.27.169,6.838,6.838,0,0,0-.607.438,13.944,13.944,0,0,1-.067-3.3c.506.3.371,1.176.235,1.416a1.588,1.588,0,0,0,.2-1.72.784.784,0,0,1,.235.235,1.124,1.124,0,0,1,.27.742v.4a1.421,1.421,0,0,0,0-1.282,1.5,1.5,0,0,0-.27-.371l-.1-.1c.034,0,.067.034.1.034a2,2,0,0,1,.27.135,1.271,1.271,0,0,1,.4.54,1.324,1.324,0,0,1,.1.471,1.287,1.287,0,0,0-.1-.978.858.858,0,0,0-.4-.371,1.988,1.988,0,0,0-.27-.135c-.034,0-.1-.034-.135-.034h.135a.657.657,0,0,1,.27.034,1.125,1.125,0,0,1,.4.169.947.947,0,0,1,.27.27.916.916,0,0,0-.27-.54.769.769,0,0,0-.4-.2A.838.838,0,0,0,5.081.8a1,1,0,0,0-.337.067A.57.57,0,0,1,5.081.636.838.838,0,0,1,5.351.6a.487.487,0,0,1,.235.067,1.467,1.467,0,0,0-.235-.2c-.1-.034-.169-.067-.27-.1a.682.682,0,0,0-.675.337l-.1-.2A2.967,2.967,0,0,1,4.137,0a2.967,2.967,0,0,1-.169.506l-.1.2A.727.727,0,0,0,2.692.639a.773.773,0,0,1,.877.235,1.071,1.071,0,0,0-1.113.27.641.641,0,0,0-.169.438.741.741,0,0,1,.169-.2,1.188,1.188,0,0,1,.877-.235,1.155,1.155,0,0,0-.877.706,1.307,1.307,0,0,0,0,.809V2.619a1.127,1.127,0,0,1,.877-1.147,1.5,1.5,0,0,0-.4,1.787,1.443,1.443,0,0,1,.506-1.383,1.463,1.463,0,0,0,.2,1.72c-.1-.235-.235-1.113.235-1.416a12.325,12.325,0,0,1-.067,3.3,5.875,5.875,0,0,0-1.214-.742c-.067-.034-.1-.034-.135-.067A3.77,3.77,0,0,0,1.311,4.5a3.225,3.225,0,0,0-1.176.3c-.067-.034-.1-.034-.135,0v.034c.034,0,.067-.034.1-.034a2.861,2.861,0,0,1,1.176-.1,3.2,3.2,0,0,1,1.15.307,5.459,5.459,0,0,1,1.383.911A13.145,13.145,0,0,1,2.426,7.1l-.034.034A.321.321,0,0,0,2.055,7a.333.333,0,0,0-.235.235.244.244,0,0,0,.067.27.453.453,0,0,0,.573.067A7.216,7.216,0,0,0,3.978,6.289c.067-.034.1-.1.169-.135.067.034.1.1.169.135.27.27.54.506.776.706.1.1.2.169.27.235a2.813,2.813,0,0,0,.4.27.5.5,0,0,0,.607,0A.033.033,0,0,0,6.4,7.466.325.325,0,0,0,6.466,7.2c0-.067-.034-.1-.1-.169a.256.256,0,0,0-.135-.067.321.321,0,0,0-.337.135c-.034-.034-.1-.034-.135-.067q-.151-.1-.4-.3c-.1-.067-.169-.169-.27-.235-.2-.169-.4-.371-.607-.573a7.407,7.407,0,0,1,.607-.471,1.183,1.183,0,0,1,.27-.169l.4-.2a4.5,4.5,0,0,1,.607-.235,3.289,3.289,0,0,1,1.416-.1,2.809,2.809,0,0,1,.506.135s.034,0,0-.034A.863.863,0,0,0,7.782,4.578Z" transform="translate(17.933 15.831)" fill="#d1fcfa"/>
    <g id="Group_412" transform="translate(0.302 30.427)">
      <path id="Path_1629" d="M.264,1.673a.8.8,0,0,0,.3.2.667.667,0,0,0,.371.067,1.693,1.693,0,0,0,.4-.067.491.491,0,0,0,.3-.2A.923.923,0,0,0,1.9.967a1.692,1.692,0,0,0-.067-.4.685.685,0,0,0-.2-.3.8.8,0,0,0-.3-.2A1.449,1.449,0,0,0,.938,0,1.213,1.213,0,0,0,.567.067l-.3.2a1.584,1.584,0,0,0-.2.3A1.434,1.434,0,0,0,0,.938a1.213,1.213,0,0,0,.067.371.666.666,0,0,0,.2.364Z" transform="translate(52.487 2.463)" fill="none"/>
      <path id="Path_1630" d="M.1.54A.68.68,0,0,0,0,.911a1.213,1.213,0,0,0,.067.371,1.87,1.87,0,0,0,.2.27A.791.791,0,0,0,.6,1.721a1.693,1.693,0,0,0,.4.067h.373V0H1.044A1.213,1.213,0,0,0,.673.067,1.055,1.055,0,0,0,.336.236.734.734,0,0,0,.1.54Z" transform="translate(0.34 2.214)" fill="none"/>
      <path id="Path_1631" d="M1.277,1.787,1.85.337A1.715,1.715,0,0,0,.909,0,1.99,1.99,0,0,0,.438.067,1.19,1.19,0,0,0,0,.337l.573,1.45Z" transform="translate(32.344 2.213)" fill="none"/>
      <path id="Path_1632" d="M.266,1.673a.8.8,0,0,0,.3.2.667.667,0,0,0,.371.067,1.693,1.693,0,0,0,.4-.067.491.491,0,0,0,.3-.2.923.923,0,0,0,.27-.706,1.693,1.693,0,0,0-.067-.4.685.685,0,0,0-.2-.3.8.8,0,0,0-.3-.2A1.449,1.449,0,0,0,.94,0,1.213,1.213,0,0,0,.569.067l-.3.2a1.584,1.584,0,0,0-.2.3A1.434,1.434,0,0,0,0,.937a1.212,1.212,0,0,0,.067.371.666.666,0,0,0,.2.365Z" transform="translate(48.844 2.463)" fill="none"/>
      <path id="Path_1633" d="M.1.54A.68.68,0,0,0,0,.911a1.213,1.213,0,0,0,.067.371,1.87,1.87,0,0,0,.2.27A1.055,1.055,0,0,0,.6,1.721a1.693,1.693,0,0,0,.408.065h.371V0H1.012A1.213,1.213,0,0,0,.641.067,1.055,1.055,0,0,0,.3.236a1.177,1.177,0,0,0-.2.3Z" transform="translate(24.028 2.214)" fill="none"/>
      <path id="Path_1634" d="M.672.068A1.055,1.055,0,0,0,.335.237.734.734,0,0,0,.1.537.68.68,0,0,0,0,.908a1.213,1.213,0,0,0,.067.371.909.909,0,0,0,.235.27,1.055,1.055,0,0,0,.337.169,1.693,1.693,0,0,0,.4.067H1.41V0H1.043A1.213,1.213,0,0,0,.672.068Z" transform="translate(7.59 2.214)" fill="none"/>
      <path id="Path_1635" d="M1.282,1.787,1.855.337A1.715,1.715,0,0,0,.914,0,1.99,1.99,0,0,0,.443.067,1.19,1.19,0,0,0,0,.337l.574,1.45Z" transform="translate(10.723 2.213)" fill="none"/>
      <path id="Path_1636" d="M.1.54A.68.68,0,0,0,0,.911a1.212,1.212,0,0,0,.069.375,1.87,1.87,0,0,0,.2.27,1.055,1.055,0,0,0,.337.169,1.693,1.693,0,0,0,.4.067h.371V0H1.006A1.213,1.213,0,0,0,.635.067,1.055,1.055,0,0,0,.3.236,1.177,1.177,0,0,0,.1.54Z" transform="translate(39.814 2.214)" fill="none"/>
      <path id="Rectangle_565" d="M.314.315H.686V.686H.315Z" transform="translate(24.46 0.686)" fill="#d1fcfa"/>
      <path id="Rectangle_566" d="M.315.315H.686V.686H.315Z" transform="translate(26.805 4.496)" fill="#d1fcfa"/>
      <path id="Path_1637" d="M4.044,2.518H1.587A3.282,3.282,0,0,1,.98,2.451a1.734,1.734,0,0,1-.507-.235,1,1,0,0,1-.337-.4A1.027,1.027,0,0,1,0,1.243,1.352,1.352,0,0,1,.1.737a.915.915,0,0,1,.3-.4A1.251,1.251,0,0,1,.872.1,1.955,1.955,0,0,1,1.489,0h.632V2.157H3.673V0h.371V2.517ZM1.38.371c-.137,0-.267,0-.331.1a1.048,1.048,0,0,0-.338.17.907.907,0,0,0-.235.27.681.681,0,0,0-.1.371.672.672,0,0,0,.067.372.528.528,0,0,0,.2.27A1.05,1.05,0,0,0,.98,2.09a1.667,1.667,0,0,0,.4.068H1.75V.371Z" transform="translate(0.004 1.843)" fill="#d1fcfa"/>
      <path id="Rectangle_567" d="M.315.315H.686V.686H.315Z" transform="translate(28.871 4.496)" fill="#d1fcfa"/>
      <path id="Rectangle_568" d="M.315.315H.686V.686H.315Z" transform="translate(27.458 4.496)" fill="#d1fcfa"/>
      <path id="Rectangle_569" d="M.315,0H.686V3.372H.315Z" transform="translate(36.831 1)" fill="#d1fcfa"/>
      <path id="Path_1638" d="M13.559,3.757h0a1.375,1.375,0,0,1-.519-.1,1.27,1.27,0,0,1-.438-.3H10.959a1.023,1.023,0,0,1-.437.3,1.7,1.7,0,0,1-.573.1H9.928a1.382,1.382,0,0,1-.519-.1,1.281,1.281,0,0,1-.438-.3H1.587A3.359,3.359,0,0,1,.98,3.29a1.76,1.76,0,0,1-.507-.236.987.987,0,0,1-.337-.4A1.027,1.027,0,0,1,0,2.082a1.352,1.352,0,0,1,.1-.506.915.915,0,0,1,.3-.4.627.627,0,0,1,.426-.168l.051,0A1.967,1.967,0,0,1,1.5.911h.631V3.073H5.6V2.5a.658.658,0,0,0-.044-.279.292.292,0,0,0-.1-.2.506.506,0,0,0-.2-.135.67.67,0,0,0-.294-.068H3.036a.719.719,0,0,0-.052-.089.785.785,0,0,1-.048-.08.477.477,0,0,1-.067-.2L3.575.1h.371L3.24,1.456H4.891a.991.991,0,0,1,.1,0,1,1,0,0,1,.372.072.777.777,0,0,1,.337.235,1.061,1.061,0,0,1,.169.338,1.714,1.714,0,0,1,.067.4V3.06H7.113v-3h.371v3H8.664a1.085,1.085,0,0,1-.032-.131A1,1,0,0,0,8.6,2.79a.933.933,0,0,1-.034-.3,1.392,1.392,0,0,1,.1-.54,1.208,1.208,0,0,1,.27-.438,1.281,1.281,0,0,1,.438-.3,1.488,1.488,0,0,1,1.079,0,2.021,2.021,0,0,1,.438.3,1.3,1.3,0,0,1,.3.438,1.392,1.392,0,0,1,.1.54,1.515,1.515,0,0,1-.1.54h1.153a1.071,1.071,0,0,1-.033-.135,1.031,1.031,0,0,0-.033-.135.918.918,0,0,1-.034-.3,1.4,1.4,0,0,1,.1-.54,1.192,1.192,0,0,1,.27-.437,1.271,1.271,0,0,1,.438-.3,1.5,1.5,0,0,1,1.078,0,2.04,2.04,0,0,1,.438.3,1.274,1.274,0,0,1,.3.437,1.382,1.382,0,0,1,.1.54,1.528,1.528,0,0,1-.1.54h1.276V0h.371V3.357H14.591a1.021,1.021,0,0,1-.438.3,1.7,1.7,0,0,1-.572.1Zm-.044-2.281a.671.671,0,0,0-.3.071.924.924,0,0,0-.5.5.646.646,0,0,0-.064.431,1.476,1.476,0,0,0,.067.371.805.805,0,0,0,.2.3l.3.2a1.213,1.213,0,0,0,.371.067,1.473,1.473,0,0,0,.4-.067.816.816,0,0,0,.3-.2,1.156,1.156,0,0,0,.2-.3,1.67,1.67,0,0,0,.067-.4,1.442,1.442,0,0,0-.067-.4.816.816,0,0,0-.2-.3.686.686,0,0,0-.3-.2,1.685,1.685,0,0,0-.4-.067A.666.666,0,0,0,13.515,1.476Zm-4.448.576a.648.648,0,0,0-.062.424,1.438,1.438,0,0,0,.068.371.813.813,0,0,0,.2.3l.3.2a1.215,1.215,0,0,0,.372.067,1.471,1.471,0,0,0,.4-.067.8.8,0,0,0,.3-.2,1.184,1.184,0,0,0,.2-.3,1.716,1.716,0,0,0,.067-.4,1.473,1.473,0,0,0-.067-.4.809.809,0,0,0-.2-.3.686.686,0,0,0-.3-.2,1.684,1.684,0,0,0-.4-.067.672.672,0,0,0-.372.067.923.923,0,0,0-.506.506ZM1.334,1.215a.318.318,0,0,0-.288.1,1.025,1.025,0,0,0-.337.169.9.9,0,0,0-.236.27.688.688,0,0,0-.1.371.667.667,0,0,0,.068.371.526.526,0,0,0,.2.27,1.058,1.058,0,0,0,.337.169,1.729,1.729,0,0,0,.4.067H1.75V1.21H1.379l0,0H1.334Z" transform="translate(39.842 1)" fill="#d1fcfa"/>
      <path id="Rectangle_570" d="M.315,0H.686V3.372H.315Z" transform="translate(57.125 1)" fill="#d1fcfa"/>
      <path id="Rectangle_571" d="M.315.315H.686V.686H.315Z" transform="translate(40.896 0.686)" fill="#d1fcfa"/>
      <path id="Rectangle_572" d="M.315.315H.686V.686H.315Z" transform="translate(40.241 0.686)" fill="#d1fcfa"/>
      <path id="Path_1639" d="M.256,4.418A.926.926,0,0,1,0,4.383l.1-.371a.129.129,0,0,0,.087.035H.3l.036,0a.256.256,0,0,0,.133-.037l.1-.1a.258.258,0,0,0,.067-.169V.843h.437V3h1.38L1.786,1.45a1.645,1.645,0,0,0,.154-.12,1.719,1.719,0,0,1,.147-.115,3.107,3.107,0,0,1,.337-.2A1.62,1.62,0,0,1,2.794.88a2.059,2.059,0,0,1,.743,0,1.61,1.61,0,0,1,.371.135c.047.03.1.062.157.092s.127.072.181.108a1.883,1.883,0,0,1,.3.235L3.907,3H5.492V0h.371V3.373H1.041V3.45a1.4,1.4,0,0,1-.034.4.641.641,0,0,1-.135.3.452.452,0,0,1-.235.2A.985.985,0,0,1,.3,4.417Zm2.75-3.21a1.053,1.053,0,0,0-.38.07,1.543,1.543,0,0,0-.438.27L2.792,3h.675L4.04,1.547A1.81,1.81,0,0,0,3.6,1.312a1.327,1.327,0,0,0-.506-.1C3.066,1.21,3.036,1.209,3.006,1.209Z" transform="translate(30.155 1)" fill="#d1fcfa"/>
      <path id="Rectangle_573" d="M.315.315H.686V.686H.315Z" transform="translate(1.403 0.686)" fill="#d1fcfa"/>
      <path id="Rectangle_574" d="M.315.315H.686V.686H.315Z" transform="translate(3.362 4.496)" fill="#d1fcfa"/>
      <path id="Rectangle_575" d="M.315.315H.686V.686H.315Z" transform="translate(0.766 0.686)" fill="#d1fcfa"/>
      <path id="Rectangle_576" d="M.315.315H.686V.686H.315Z" transform="translate(2.688 4.496)" fill="#d1fcfa"/>
      <path id="Path_1640" d="M0,2.16v.371H2.127V1.049a1.693,1.693,0,0,0-.067-.4A1.055,1.055,0,0,0,1.891.312.771.771,0,0,0,1.554.071.925.925,0,0,0,1.116,0H.846V.375h.337a.794.794,0,0,1,.27.067.894.894,0,0,1,.2.169.292.292,0,0,1,.1.2.657.657,0,0,1,.034.27V2.16Z" transform="translate(4.517 1.84)" fill="#d1fcfa"/>
      <path id="Path_1641" d="M5.836,2.518H1.587A3.282,3.282,0,0,1,.98,2.451a1.734,1.734,0,0,1-.507-.235,1,1,0,0,1-.337-.4A1.027,1.027,0,0,1,0,1.243,1.352,1.352,0,0,1,.1.737a.915.915,0,0,1,.3-.4A1.141,1.141,0,0,1,.94.1,1.964,1.964,0,0,1,1.557,0h.631V2.157H3.676V0h.371V2.157H5.465V0h.371V2.517ZM1.38.371c-.133,0-.27,0-.336.1A1.076,1.076,0,0,0,.706.639a.907.907,0,0,0-.235.27.681.681,0,0,0-.1.371.679.679,0,0,0,.067.372.535.535,0,0,0,.2.27,1.041,1.041,0,0,0,.337.168,1.685,1.685,0,0,0,.4.068h.371V.371Z" transform="translate(23.73 1.843)" fill="#d1fcfa"/>
      <path id="Rectangle_577" d="M.315,0H.686V3.372H.315Z" transform="translate(21.049 1)" fill="#d1fcfa"/>
      <path id="Rectangle_578" d="M.315.315H.686V.686H.315Z" transform="translate(25.115 0.686)" fill="#d1fcfa"/>
      <path id="Path_1642" d="M1.271,4.372l-.081,0H1.133a1.151,1.151,0,0,1-.281-.035A2.741,2.741,0,0,1,.482,4.2l.1-.373.3.1a.827.827,0,0,0,.242.036l.058,0a.876.876,0,0,0,.471-.135.457.457,0,0,0,.169-.4v-.1H1.587A3.362,3.362,0,0,1,.98,3.26a1.756,1.756,0,0,1-.507-.235,1,1,0,0,1-.337-.4A1.031,1.031,0,0,1,0,2.052a1.345,1.345,0,0,1,.1-.506.924.924,0,0,1,.3-.4A1.791,1.791,0,0,1,.908.876a1.955,1.955,0,0,1,.617-.1h.6V2.933H3.437L2.769,1.382a1.741,1.741,0,0,0,.154-.121,1.814,1.814,0,0,1,.146-.115,3.107,3.107,0,0,1,.337-.2A1.709,1.709,0,0,1,3.777.812a2.059,2.059,0,0,1,.743,0,1.7,1.7,0,0,1,.371.135c.047.03.1.062.157.092s.127.072.181.108a1.9,1.9,0,0,1,.3.236L4.887,2.933H6.842V1.012h.371V2.933h.775a.581.581,0,0,0,.212-.04.293.293,0,0,0,.2-.1.709.709,0,0,0,.135-.2.974.974,0,0,0,.067-.3V1.012h.372V2.328a.706.706,0,0,0,.014.124,1.147,1.147,0,0,1,.02.212.771.771,0,0,1,.09.1.867.867,0,0,0,.08.1A.539.539,0,0,0,9.41,3a.986.986,0,0,0,.3.068l.062,0a.669.669,0,0,0,.478-.2.829.829,0,0,0,.168-.507V1.08h.372V2.293a1.035,1.035,0,0,1-.034.337.8.8,0,0,0,.3.27.947.947,0,0,0,.429.1q.039,0,.078,0h.6V0h.369V3.371H11.459l-.053,0a.667.667,0,0,1-.217-.036,2.439,2.439,0,0,1-.27-.1A.337.337,0,0,1,10.75,3.1a.741.741,0,0,0-.053-.09.832.832,0,0,1-.047-.079.8.8,0,0,1-.369.372,1.433,1.433,0,0,1-.527.1H9.707a1.426,1.426,0,0,1-.572-.135.905.905,0,0,1-.372-.337.744.744,0,0,1-.338.308,1.072,1.072,0,0,1-.454.1H2.234v.052A.955.955,0,0,1,2,4.1,1.109,1.109,0,0,1,1.271,4.372ZM4.057,1.142a1.064,1.064,0,0,0-.384.071,1.525,1.525,0,0,0-.438.27l.6,1.45h.675l.573-1.452a1.824,1.824,0,0,0-.438-.236,1.362,1.362,0,0,0-.506-.1C4.115,1.143,4.086,1.142,4.057,1.142Zm-2.674.007a1.412,1.412,0,0,0-.371.067,1.045,1.045,0,0,0-.337.169,1.85,1.85,0,0,0-.235.3.673.673,0,0,0-.1.371.663.663,0,0,0,.067.372.907.907,0,0,0,.235.27,1.05,1.05,0,0,0,.338.168,1.667,1.667,0,0,0,.4.067H1.75l0-1.784Z" transform="translate(7.253 1.067)" fill="#d1fcfa"/>
    </g>
    <path id="Path_1643" d="M2.326,0H1.754L.475,1.349V0H0V2.667H.475V1.891l.438-.4.911,1.176H2.4L1.217,1.145Z" transform="translate(0.641 37.261)" fill="#d1fcfa"/>
    <path id="Rectangle_579" d="M.262,0H.738V2.664H.262Z" transform="translate(3.178 37.261)" fill="#d1fcfa"/>
    <path id="Path_1644" d="M1.855,1.855.438,0H0V2.667H.471V.778l1.45,1.889h.4V0H1.855Z" transform="translate(4.654 37.261)" fill="#d1fcfa"/>
    <path id="Path_1645" d="M1.384,1.614h.675V2.12a1.038,1.038,0,0,1-.641.2.895.895,0,0,1-.911-.941A.908.908,0,0,1,1.384.444a.941.941,0,0,1,.742.3l.3-.371A1.46,1.46,0,0,0,1.381,0,1.367,1.367,0,0,0,0,1.384,1.328,1.328,0,0,0,1.384,2.767a1.841,1.841,0,0,0,1.113-.4V1.249H1.35V1.62Z" transform="translate(7.552 37.232)" fill="#d1fcfa"/>
    <g id="Group_413" transform="translate(10.957 37.257)">
      <path id="Path_1646" d="M.54,0H0V1.822H.54A.877.877,0,0,0,1.481.911.914.914,0,0,0,.54,0Z" transform="translate(0.472 0.441)" fill="none"/>
      <path id="Path_1647" d="M1.094,2.672l-.082,0H0V0H1.012l.082,0a1.336,1.336,0,0,1,0,2.672ZM.442.442V2.263h.54l.064,0a.878.878,0,0,0,.878-.913A.876.876,0,0,0,1.048.439l-.066,0H.442Z" transform="translate(0 0)" fill="#d1fcfa"/>
    </g>
    <g id="Group_414" transform="translate(13.887 36.227)">
      <path id="Path_1648" d="M.912,0A.914.914,0,0,0,0,.941a.911.911,0,1,0,1.821,0A.9.9,0,0,0,.911,0Z" transform="translate(0.471 1.439)" fill="none"/>
      <path id="Path_1649" d="M1.4,2.767H1.367A1.368,1.368,0,0,1,0,1.383,1.4,1.4,0,0,1,1.4,0h.056a1.336,1.336,0,0,1,.951.394,1.353,1.353,0,0,1,.394.989A1.4,1.4,0,0,1,1.4,2.767ZM1.4.443H1.383a.913.913,0,0,0-.911.94.911.911,0,1,0,1.821,0A.893.893,0,0,0,1.4.443Z" transform="translate(0 0.999)" fill="#d1fcfa"/>
    </g>
    <path id="Path_1650" d="M1.349,1.282.506,0H0V2.667H.471V.779l.843,1.248h.034L2.191.779V2.668h.471V0H2.155Z" transform="translate(17.331 37.26)" fill="#d1fcfa"/>
    <g id="Group_415" transform="translate(21.777 37.225)">
      <path id="Path_1651" d="M.912,0A.914.914,0,0,0,0,.941a.911.911,0,1,0,1.821,0A.9.9,0,0,0,.911,0Z" transform="translate(0.504 0.441)" fill="none"/>
      <path id="Path_1652" d="M1.4,2.769H1.367A1.368,1.368,0,0,1,0,1.385,1.4,1.4,0,0,1,1.4,0h.017l.079,0A1.309,1.309,0,0,1,2.8,1.385,1.4,1.4,0,0,1,1.4,2.769ZM1.437.444H1.417a.915.915,0,0,0-.912.94.911.911,0,1,0,1.822,0A.893.893,0,0,0,1.437.444Z" transform="translate(0 0)" fill="#d1fcfa"/>
    </g>
    <path id="Path_1653" d="M0,2.666H.471V1.587H1.82V1.149H.471V.443H1.989V0H0Z" transform="translate(25.25 37.261)" fill="#d1fcfa"/>
    <path id="Path_1654" d="M1.215,1.146C.709,1.011.574.946.574.746c0-.169.169-.3.438-.3a1.431,1.431,0,0,1,.742.27L1.989.345A1.558,1.558,0,0,0,1.011.008.8.8,0,0,0,.1.784c0,.506.337.675.877.809.506.1.607.2.607.4s-.169.337-.471.337A1.333,1.333,0,0,1,.27,1.993L0,2.33a1.609,1.609,0,0,0,1.113.438c.573,0,.941-.3.941-.809C2.092,1.481,1.789,1.279,1.215,1.146Z" transform="translate(28.798 37.23)" fill="#d1fcfa"/>
    <g id="Group_416" transform="translate(31.219 37.261)">
      <path id="Path_1655" d="M.03,1.079H.97L.5,0Z" transform="translate(0.882 0.54)" fill="none"/>
      <path id="Path_1656" d="M.47,2.7H0L1.176,0h.446L2.8,2.7H2.294l-.27-.641H.741L.471,2.7ZM1.377.54.907,1.619h.94Z" fill="#d1fcfa"/>
    </g>
    <path id="Path_1657" d="M1.824,1.551c0,.506-.27.742-.675.742s-.675-.27-.675-.776V0H0V1.551a1.151,1.151,0,1,0,2.3-.036V0H1.829Z" transform="translate(34.346 37.261)" fill="#d1fcfa"/>
    <g id="Group_417" transform="translate(37.382 37.257)">
      <path id="Path_1658" d="M.54,0H0V1.823H.54A.877.877,0,0,0,1.481.912.895.895,0,0,0,.54,0Z" transform="translate(0.472 0.44)" fill="none"/>
      <path id="Path_1659" d="M1.094,2.672l-.082,0H0V0H1.012l.082,0a1.336,1.336,0,0,1,0,2.672ZM.442.442V2.263h.54l.064,0a.878.878,0,0,0,.878-.913A.867.867,0,0,0,1.661.68a.856.856,0,0,0-.6-.242c-.027,0-.054,0-.08,0H.442Z" transform="translate(0 0)" fill="#d1fcfa"/>
    </g>
    <path id="Rectangle_580" d="M.264,0H.736V2.664H.264Z" transform="translate(40.185 37.261)" fill="#d1fcfa"/>
    <g id="Group_418" transform="translate(42.625 37.261)">
      <path id="Path_1660" d="M.045,1.079H.956L.484,0Z" transform="translate(0.9 0.54)" fill="none"/>
      <path id="Path_1661" d="M.47,2.7H0L1.176,0h.445L2.8,2.7H2.292l-.27-.641H.741L.471,2.7ZM1.412.54.941,1.619h.941Z" fill="#d1fcfa"/>
    </g>
    <g id="Group_419" transform="translate(44.928 36.259)">
      <path id="Path_1662" d="M1.214.482c0-.3-.2-.438-.54-.438H0V.956H.674C1.012.922,1.214.751,1.214.482Z" transform="translate(1.502 1.395)" fill="none"/>
      <path id="Path_1663" d="M.475,2.669H0V0H1.18l.061,0a1.074,1.074,0,0,1,.715.272.693.693,0,0,1,.235.573.8.8,0,0,1-.634.812l.705,1.01-.539,0-.675-.941H.475v.941ZM.5.4v.913H1.18c.343,0,.54-.177.54-.475C1.72.573,1.513.4,1.18.4Z" transform="translate(0.996 0.999)" fill="#d1fcfa"/>
    </g>
    <g id="Group_420" transform="translate(48.805 37.261)">
      <path id="Path_1664" d="M.045,1.079H.956L.484,0Z" transform="translate(0.9 0.54)" fill="none"/>
      <path id="Path_1665" d="M.47,2.7H0L1.176,0h.445L2.8,2.7H2.292l-.27-.641H.741L.471,2.7ZM1.412.54.941,1.619h.941Z" fill="#d1fcfa"/>
    </g>
    <g id="Group_421" transform="translate(52.008 37.258)">
      <path id="Path_1666" d="M.742.129H0V.871H.776c.337,0,.506-.135.506-.371S1.113.129.742.129Z" transform="translate(0.506 1.389)" fill="none"/>
      <path id="Path_1667" d="M1.146.484c0-.2-.169-.337-.471-.337H0V.853H.641C.94.853,1.146.724,1.146.484Z" transform="translate(0.507 0.294)" fill="none"/>
      <path id="Path_1668" d="M1.248,2.67H0V0H1.216q.038,0,.076,0a.949.949,0,0,1,.631.24.635.635,0,0,1,.168.437.623.623,0,0,1-.371.607c.367.109.537.327.506.644C2.226,2.393,1.86,2.67,1.248,2.67ZM.506,1.518v.743h.775c.313,0,.507-.142.507-.371,0-.247-.181-.373-.539-.373Zm0-1.112L.5,1.115h.644c.312,0,.506-.142.506-.371,0-.208-.18-.338-.471-.338Z" transform="translate(0 0)" fill="#d1fcfa"/>
    </g>
    <path id="Rectangle_581" d="M.268,0H.736V2.664H.264Z" transform="translate(54.606 37.261)" fill="#d1fcfa"/>
    <g id="Group_422" transform="translate(55.784 37.261)">
      <path id="Path_1669" d="M.03,1.079H.97L.5,0Z" transform="translate(0.882 0.54)" fill="none"/>
      <path id="Path_1670" d="M.47,2.7H0L1.176,0h.445L2.8,2.7H2.292l-.27-.641H.741L.471,2.7ZM1.377.54.907,1.619h.94Z" fill="#d1fcfa"/>
    </g>
    <path id="Path_1160_2_" d="M36.928,28.028a7.472,7.472,0,0,1-5.737-2.675L33.53,23.1a4.709,4.709,0,0,0,3.718,1.873,1.891,1.891,0,0,0,1.412-.384,1.932,1.932,0,0,0,.723-1.281V23.03c0-1.255-1.1-1.976-3.031-1.976H34.94l-.551-2.116,4.957-4.994L37.384,15.19H32.116V12.276h10.4v2.566l-3.89,3.745c1.884.312,4.131,1.319,4.131,4.335a4.886,4.886,0,0,1-1.485,3.671,5.836,5.836,0,0,1-4.092,1.431C37.1,28.026,37.011,28.028,36.928,28.028Zm15.078,0q-.115,0-.232,0H51.43a7.9,7.9,0,0,1-7.814-7.976v-.311a8.007,8.007,0,0,1,8-7.737c.076,0,.151,0,.227,0h.345A7.906,7.906,0,0,1,60,19.975v.312a8.006,8.006,0,0,1-8,7.737ZM51.5,15.158a4.536,4.536,0,0,0-4.3,4.79v.209a4.7,4.7,0,0,0,4.644,4.678h.275a4.534,4.534,0,0,0,4.3-4.79v-.208a4.707,4.707,0,0,0-4.644-4.679ZM11.567,27.743H.138v-2.67l5.129-4.231c1.832-1.484,2.65-2.377,2.65-3.742A1.829,1.829,0,0,0,7.5,15.761a1.8,1.8,0,0,0-1.24-.638H5.852c-1.143,0-1.932.66-3.167,2.047L.345,15.294c1.585-2.047,2.976-3.155,5.783-3.155a5.634,5.634,0,0,1,3.838,1.3,4.526,4.526,0,0,1,1.462,3.485v.069c0,2.563-1.227,3.786-4.028,5.965L3.924,25.524l-.689.484L5.68,24.83h5.887v2.912Zm38.416-17.9h-.689V9.152h.689v.693Zm-1.274,0h-.693l0-.694h.688v.693ZM19.944,8.708h0a3.23,3.23,0,0,1-1.761-.521,3.3,3.3,0,0,1-1.491-2.916v-.14a3.265,3.265,0,0,1,3.27-3.19l0,.035h.172a3.146,3.146,0,0,1,2.218,1A3.2,3.2,0,0,1,23.2,5.271v.311a3.3,3.3,0,0,1-1.761,2.76A3.249,3.249,0,0,1,19.944,8.708ZM19.824,2.6a2.48,2.48,0,0,0-2.34,2.6v.07a2.546,2.546,0,0,0,2.481,2.566H20.1a2.481,2.481,0,0,0,2.34-2.6v-.07A2.547,2.547,0,0,0,19.962,2.6ZM53.606,8.571a1.776,1.776,0,0,1-.184-.01,3.784,3.784,0,0,1-.62-.068c-.12-.034-.233-.078-.343-.121s-.225-.087-.346-.121l.172-.625.552.174a1.494,1.494,0,0,0,.456.071l.093,0c.038,0,.076.005.113.005a1.263,1.263,0,0,0,.747-.247.853.853,0,0,0,.311-.762V6.17l-.24.451h-.172a9.975,9.975,0,0,1-1.067-.14,2.412,2.412,0,0,1-.86-.382.87.87,0,0,1-.547-.691,2.078,2.078,0,0,1-.24-1.006,2.247,2.247,0,0,1,.172-.937,1.748,1.748,0,0,1,.552-.763l.011-.006c.3-.167.613-.34.919-.477a3.863,3.863,0,0,1,1.1-.174h1.1V6.829a1.855,1.855,0,0,1-.447,1.249A1.772,1.772,0,0,1,53.606,8.571Zm.3-5.761a4,4,0,0,0-.688.14,1.728,1.728,0,0,0-.552.311,1.21,1.21,0,0,0-.448.484,1.107,1.107,0,0,0-.169.659,1.584,1.584,0,0,0,.139.7,1.042,1.042,0,0,0,.38.484,1.746,1.746,0,0,0,.551.312,2.932,2.932,0,0,0,.752.135h.758V2.983l.379-.173H53.9ZM50.364,8.569H38.074a4.063,4.063,0,0,1-.619-.139,2.368,2.368,0,0,1-.448-.382l-.069-.068v.484H35.528c-.039-.039-.057-.057-.078-.057a.157.157,0,0,0-.06.023,3.128,3.128,0,0,1-3.032-3.19V5.1a3.186,3.186,0,0,1,3.167-3.055h1.859V7.214c.034.068.051.112.068.154s.035.088.07.158l.172.173a.508.508,0,0,0,.26.072l.051,0H49.675V2.046h.689V8.568ZM35.39,2.67a2.5,2.5,0,0,0-2.273,2.567,2.429,2.429,0,0,0,2.374,2.428H36.8a.38.38,0,0,1-.139-.312,2.37,2.37,0,0,1-.068-.694V2.843l.447-.173ZM56.808,8.535a1.485,1.485,0,0,1-.457-.072l.172-.624.172.069h.173l.05,0a.507.507,0,0,0,.259-.072l.172-.173c.035-.071.053-.115.07-.158s.034-.086.068-.154V2.046h.689V6.762a2.334,2.334,0,0,1-.069.694l-.172.555a2.368,2.368,0,0,1-.448.382,2.948,2.948,0,0,1-.585.139Zm-45.537,0A3.4,3.4,0,0,1,8.847,7.525L9.3,6.97a2.8,2.8,0,0,0,2.027.871c.047,0,.095,0,.142,0,.845,0,1.412-.432,1.412-1.076,0-.529-.281-.932-1.653-1.179-1.531-.322-2.1-.83-2.1-1.873a1.89,1.89,0,0,1,1.882-1.772c.039,0,.079,0,.117,0h.123a3.472,3.472,0,0,1,2.214.8l-.445.559a2.8,2.8,0,0,0-1.856-.7h-.007c-.791,0-1.343.442-1.343,1.075,0,.588.257.925,1.721,1.249s2.066.846,2.066,1.8c0,1.078-.872,1.8-2.169,1.8C11.376,8.529,11.323,8.53,11.271,8.53ZM3.339,8.462H2.723L0,2.046H.792l.379.939,1.859,4.54.174.451-.069-.694L5.3,2.046h.757L3.339,8.461ZM25.026,8.39h-.685V2.046h.689L29.3,7.526l-.239-.763-.005-4.716h.689V8.388h-.552L24.647,2.67l.379.937V8.389Zm-9.5,0h-.757V2.046h.757V8.388Zm-7.814,0H7.022V2.046h.757L7.711,8.388Zm47.47-7.036H53.769V.8a1.32,1.32,0,0,1,.172-.624A1.282,1.282,0,0,1,54.561,0h.481V.451h-.481c-.1,0-.239.067-.239.173V.866h.86v.486Zm-17.8,0H36.7V.694h.689v.658Zm-1.343,0h-.689V.694h.689v.658Z" fill="#d1fcfa"/>
  </g>
</svg>
